<?xml version="1.0" encoding="UTF-8"?>
<!DOCTYPE svg PUBLIC "-//W3C//DTD SVG 1.1//EN" "http://www.w3.org/Graphics/SVG/1.1/DTD/svg11.dtd"><svg version="1.1" viewBox="0 0 20000 20000" preserveAspectRatio="xMidYMid" fill-rule="evenodd" xmlns="http://www.w3.org/2000/svg" xmlns:xlink="http://www.w3.org/1999/xlink"><g visibility="visible" id="Standard"><desc>Master slide</desc></g><g visibility="visible" id="page1"><desc>Slide</desc><g><desc>Drawing</desc><g><g style="stroke:none;fill:rgb(153,204,0)"><path d="M 4488,11207 L 4485,11154 4477,11102 4465,11052 4447,11004 4425,10958 4399,10915 4369,10875 4335,10838 4298,10804 4258,10774 4215,10747 4169,10725 4121,10708 4071,10695 4019,10687 3966,10684 3913,10687 3861,10695 3810,10708 3762,10725 3717,10747 3674,10774 3633,10804 3596,10838 3562,10875 3532,10915 3506,10958 3484,11004 3466,11052 3454,11102 3446,11154 3443,11207 3446,11260 3454,11312 3466,11363 3484,11411 3506,11456 3532,11499 3562,11540 3596,11577 3633,11611 3674,11641 3717,11667 3762,11689 3810,11707 3861,11719 3913,11727 3966,11730 4019,11727 4071,11719 4121,11707 4169,11689 4215,11667 4258,11641 4298,11611 4335,11577 4369,11540 4399,11499 4425,11456 4447,11411 4465,11363 4477,11312 4485,11260 4488,11207 Z"/></g><g/></g></g><g><desc>Drawing</desc><g><g style="stroke:none;fill:rgb(153,204,0)"><path d="M 3282,11207 L 3279,11154 3271,11102 3259,11052 3241,11004 3219,10958 3193,10915 3163,10875 3129,10838 3092,10804 3051,10774 3008,10747 2963,10725 2915,10708 2864,10695 2812,10687 2759,10684 2706,10687 2654,10695 2604,10708 2556,10725 2510,10747 2467,10774 2427,10804 2390,10838 2356,10875 2326,10915 2300,10958 2278,11004 2260,11052 2248,11102 2240,11154 2237,11207 2240,11260 2248,11312 2260,11363 2278,11411 2300,11456 2326,11499 2356,11540 2390,11577 2427,11611 2467,11641 2510,11667 2556,11689 2604,11707 2654,11719 2706,11727 2759,11730 2812,11727 2864,11719 2915,11707 2963,11689 3008,11667 3051,11641 3092,11611 3129,11577 3163,11540 3193,11499 3219,11456 3241,11411 3259,11363 3271,11312 3279,11260 3282,11207 Z"/></g><g/></g></g><g><desc>Drawing</desc><g><g style="stroke:none;fill:rgb(153,204,0)"><path d="M 2075,11207 L 2072,11154 2064,11102 2052,11052 2034,11004 2012,10958 1986,10915 1956,10875 1922,10838 1885,10804 1845,10774 1802,10747 1756,10725 1708,10708 1658,10695 1606,10687 1553,10684 1499,10687 1448,10695 1397,10708 1349,10725 1303,10747 1260,10774 1220,10804 1183,10838 1149,10875 1119,10915 1092,10958 1070,11004 1053,11052 1040,11102 1032,11154 1029,11207 1032,11260 1040,11312 1053,11363 1070,11411 1092,11456 1119,11499 1149,11540 1183,11577 1220,11611 1260,11641 1303,11667 1349,11689 1397,11707 1448,11719 1499,11727 1553,11730 1606,11727 1658,11719 1708,11707 1756,11689 1802,11667 1845,11641 1885,11611 1922,11577 1956,11540 1986,11499 2012,11456 2034,11411 2052,11363 2064,11312 2072,11260 2075,11207 Z"/></g><g/></g></g><g><desc>Drawing</desc><g><g style="stroke:none;fill:rgb(255,204,0)"><path d="M 2075,10001 L 2072,9947 2064,9895 2052,9845 2034,9797 2012,9751 1986,9708 1956,9668 1922,9631 1885,9597 1845,9567 1802,9541 1756,9519 1708,9501 1658,9489 1606,9481 1553,9478 1499,9481 1448,9489 1397,9501 1349,9519 1303,9541 1260,9567 1220,9597 1183,9631 1149,9668 1119,9708 1092,9751 1070,9797 1053,9845 1040,9895 1032,9947 1029,10001 1032,10054 1040,10106 1053,10156 1070,10204 1092,10250 1119,10293 1149,10333 1183,10371 1220,10404 1260,10434 1303,10461 1349,10483 1397,10500 1448,10513 1499,10521 1553,10524 1606,10521 1658,10513 1708,10500 1756,10483 1802,10461 1845,10434 1885,10404 1922,10371 1956,10333 1986,10293 2012,10250 2034,10204 2052,10156 2064,10106 2072,10054 2075,10001 Z"/></g><g/></g></g><g><desc>Drawing</desc><g><g style="stroke:none;fill:rgb(153,204,0)"><path d="M 8109,11207 L 8106,11154 8098,11102 8085,11052 8068,11004 8046,10958 8020,10915 7990,10875 7956,10838 7919,10804 7878,10774 7835,10747 7789,10725 7741,10708 7691,10695 7639,10687 7585,10684 7532,10687 7480,10695 7430,10708 7382,10725 7336,10747 7293,10774 7253,10804 7216,10838 7182,10875 7152,10915 7126,10958 7104,11004 7086,11052 7074,11102 7066,11154 7063,11207 7066,11260 7074,11312 7086,11363 7104,11411 7126,11456 7152,11499 7182,11540 7216,11577 7253,11611 7293,11641 7336,11667 7382,11689 7430,11707 7480,11719 7532,11727 7585,11730 7639,11727 7691,11719 7741,11707 7789,11689 7835,11667 7878,11641 7919,11611 7956,11577 7990,11540 8020,11499 8046,11456 8068,11411 8085,11363 8098,11312 8106,11260 8109,11207 Z"/></g><g/></g></g><g><desc>Drawing</desc><g><g style="stroke:none;fill:rgb(153,204,0)"><path d="M 6902,11207 L 6899,11154 6891,11102 6879,11052 6861,11004 6839,10958 6813,10915 6783,10875 6749,10838 6712,10804 6672,10774 6629,10747 6583,10725 6535,10708 6485,10695 6433,10687 6379,10684 6326,10687 6274,10695 6224,10708 6176,10725 6130,10747 6087,10774 6047,10804 6010,10838 5976,10875 5946,10915 5919,10958 5897,11004 5880,11052 5867,11102 5859,11154 5856,11207 5859,11260 5867,11312 5880,11363 5897,11411 5919,11456 5946,11499 5976,11540 6010,11577 6047,11611 6087,11641 6130,11667 6176,11689 6224,11707 6274,11719 6326,11727 6379,11730 6433,11727 6485,11719 6535,11707 6583,11689 6629,11667 6672,11641 6712,11611 6749,11577 6783,11540 6813,11499 6839,11456 6861,11411 6879,11363 6891,11312 6899,11260 6902,11207 Z"/></g><g/></g></g><g><desc>Drawing</desc><g><g style="stroke:none;fill:rgb(153,204,0)"><path d="M 5696,11207 L 5693,11154 5685,11102 5672,11052 5655,11004 5633,10958 5606,10915 5576,10875 5543,10838 5505,10804 5465,10774 5422,10747 5376,10725 5328,10708 5278,10695 5226,10687 5173,10684 5119,10687 5067,10695 5017,10708 4969,10725 4923,10747 4880,10774 4840,10804 4803,10838 4769,10875 4739,10915 4713,10958 4691,11004 4673,11052 4661,11102 4653,11154 4650,11207 4653,11260 4661,11312 4673,11363 4691,11411 4713,11456 4739,11499 4769,11540 4803,11577 4840,11611 4880,11641 4923,11667 4969,11689 5017,11707 5067,11719 5119,11727 5173,11730 5226,11727 5278,11719 5328,11707 5376,11689 5422,11667 5465,11641 5505,11611 5543,11577 5576,11540 5606,11499 5633,11456 5655,11411 5672,11363 5685,11312 5693,11260 5696,11207 Z"/></g><g/></g></g><g><desc>Drawing</desc><g><g style="stroke:none;fill:rgb(153,204,0)"><path d="M 9315,11207 L 9312,11154 9304,11102 9292,11052 9274,11004 9252,10958 9226,10915 9196,10875 9162,10838 9125,10804 9085,10774 9042,10747 8996,10725 8948,10708 8898,10695 8846,10687 8793,10684 8739,10687 8688,10695 8637,10708 8589,10725 8543,10747 8500,10774 8460,10804 8423,10838 8389,10875 8359,10915 8332,10958 8310,11004 8293,11052 8280,11102 8272,11154 8269,11207 8272,11260 8280,11312 8293,11363 8310,11411 8332,11456 8359,11499 8389,11540 8423,11577 8460,11611 8500,11641 8543,11667 8589,11689 8637,11707 8688,11719 8739,11727 8793,11730 8846,11727 8898,11719 8948,11707 8996,11689 9042,11667 9085,11641 9125,11611 9162,11577 9196,11540 9226,11499 9252,11456 9274,11411 9292,11363 9304,11312 9312,11260 9315,11207 Z"/></g><g/></g></g><g><desc>Drawing</desc><g><g style="stroke:none;fill:rgb(255,204,0)"><path d="M 4488,8793 L 4485,8740 4477,8688 4465,8638 4447,8590 4425,8544 4399,8501 4369,8461 4335,8424 4298,8390 4258,8360 4215,8333 4169,8311 4121,8294 4071,8281 4019,8273 3966,8270 3913,8273 3861,8281 3810,8294 3762,8311 3717,8333 3674,8360 3633,8390 3596,8424 3562,8461 3532,8501 3506,8544 3484,8590 3466,8638 3454,8688 3446,8740 3443,8793 3446,8847 3454,8899 3466,8949 3484,8997 3506,9043 3532,9086 3562,9126 3596,9163 3633,9197 3674,9227 3717,9253 3762,9275 3810,9293 3861,9305 3913,9313 3966,9316 4019,9313 4071,9305 4121,9293 4169,9275 4215,9253 4258,9227 4298,9197 4335,9163 4369,9126 4399,9086 4425,9043 4447,8997 4465,8949 4477,8899 4485,8847 4488,8793 Z"/></g><g/></g></g><g><desc>Drawing</desc><g><g style="stroke:none;fill:rgb(255,204,0)"><path d="M 3282,8793 L 3279,8740 3271,8688 3259,8638 3241,8590 3219,8544 3193,8501 3163,8461 3129,8424 3092,8390 3051,8360 3008,8333 2963,8311 2915,8294 2864,8281 2812,8273 2759,8270 2706,8273 2654,8281 2604,8294 2556,8311 2510,8333 2467,8360 2427,8390 2390,8424 2356,8461 2326,8501 2300,8544 2278,8590 2260,8638 2248,8688 2240,8740 2237,8793 2240,8847 2248,8899 2260,8949 2278,8997 2300,9043 2326,9086 2356,9126 2390,9163 2427,9197 2467,9227 2510,9253 2556,9275 2604,9293 2654,9305 2706,9313 2759,9316 2812,9313 2864,9305 2915,9293 2963,9275 3008,9253 3051,9227 3092,9197 3129,9163 3163,9126 3193,9086 3219,9043 3241,8997 3259,8949 3271,8899 3279,8847 3282,8793 Z"/></g><g/></g></g><g><desc>Drawing</desc><g><g style="stroke:none;fill:rgb(255,204,0)"><path d="M 8109,8793 L 8106,8740 8098,8688 8085,8638 8068,8590 8046,8544 8020,8501 7990,8461 7956,8424 7919,8390 7878,8360 7835,8333 7789,8311 7741,8294 7691,8281 7639,8273 7585,8270 7532,8273 7480,8281 7430,8294 7382,8311 7336,8333 7293,8360 7253,8390 7216,8424 7182,8461 7152,8501 7126,8544 7104,8590 7086,8638 7074,8688 7066,8740 7063,8793 7066,8847 7074,8899 7086,8949 7104,8997 7126,9043 7152,9086 7182,9126 7216,9163 7253,9197 7293,9227 7336,9253 7382,9275 7430,9293 7480,9305 7532,9313 7585,9316 7639,9313 7691,9305 7741,9293 7789,9275 7835,9253 7878,9227 7919,9197 7956,9163 7990,9126 8020,9086 8046,9043 8068,8997 8085,8949 8098,8899 8106,8847 8109,8793 Z"/></g><g/></g></g><g><desc>Drawing</desc><g><g style="stroke:none;fill:rgb(255,204,0)"><path d="M 6902,8793 L 6899,8740 6891,8688 6879,8638 6861,8590 6839,8544 6813,8501 6783,8461 6749,8424 6712,8390 6672,8360 6629,8333 6583,8311 6535,8294 6485,8281 6433,8273 6379,8270 6326,8273 6274,8281 6224,8294 6176,8311 6130,8333 6087,8360 6047,8390 6010,8424 5976,8461 5946,8501 5919,8544 5897,8590 5880,8638 5867,8688 5859,8740 5856,8793 5859,8847 5867,8899 5880,8949 5897,8997 5919,9043 5946,9086 5976,9126 6010,9163 6047,9197 6087,9227 6130,9253 6176,9275 6224,9293 6274,9305 6326,9313 6379,9316 6433,9313 6485,9305 6535,9293 6583,9275 6629,9253 6672,9227 6712,9197 6749,9163 6783,9126 6813,9086 6839,9043 6861,8997 6879,8949 6891,8899 6899,8847 6902,8793 Z"/></g><g/></g></g><g><desc>Drawing</desc><g><g style="stroke:none;fill:rgb(255,204,0)"><path d="M 5696,8793 L 5693,8740 5685,8688 5672,8638 5655,8590 5633,8544 5606,8501 5576,8461 5543,8424 5505,8390 5465,8360 5422,8333 5376,8311 5328,8294 5278,8281 5226,8273 5173,8270 5119,8273 5067,8281 5017,8294 4969,8311 4923,8333 4880,8360 4840,8390 4803,8424 4769,8461 4739,8501 4713,8544 4691,8590 4673,8638 4661,8688 4653,8740 4650,8793 4653,8847 4661,8899 4673,8949 4691,8997 4713,9043 4739,9086 4769,9126 4803,9163 4840,9197 4880,9227 4923,9253 4969,9275 5017,9293 5067,9305 5119,9313 5173,9316 5226,9313 5278,9305 5328,9293 5376,9275 5422,9253 5465,9227 5505,9197 5543,9163 5576,9126 5606,9086 5633,9043 5655,8997 5672,8949 5685,8899 5693,8847 5696,8793 Z"/></g><g/></g></g><g><desc>Drawing</desc><g><g style="stroke:none;fill:rgb(255,204,0)"><path d="M 9315,8793 L 9312,8740 9304,8688 9292,8638 9274,8590 9252,8544 9226,8501 9196,8461 9162,8424 9125,8390 9085,8360 9042,8333 8996,8311 8948,8294 8898,8281 8846,8273 8793,8270 8739,8273 8688,8281 8637,8294 8589,8311 8543,8333 8500,8360 8460,8390 8423,8424 8389,8461 8359,8501 8332,8544 8310,8590 8293,8638 8280,8688 8272,8740 8269,8793 8272,8847 8280,8899 8293,8949 8310,8997 8332,9043 8359,9086 8389,9126 8423,9163 8460,9197 8500,9227 8543,9253 8589,9275 8637,9293 8688,9305 8739,9313 8793,9316 8846,9313 8898,9305 8948,9293 8996,9275 9042,9253 9085,9227 9125,9197 9162,9163 9196,9126 9226,9086 9252,9043 9274,8997 9292,8949 9304,8899 9312,8847 9315,8793 Z"/></g><g/></g></g><g><desc>Drawing</desc><g><g style="stroke:none;fill:rgb(255,204,0)"><path d="M 9315,7587 L 9312,7534 9304,7482 9292,7431 9274,7383 9252,7338 9226,7295 9196,7254 9162,7217 9125,7183 9085,7153 9042,7127 8996,7105 8948,7087 8898,7075 8846,7067 8793,7064 8739,7067 8688,7075 8637,7087 8589,7105 8543,7127 8500,7153 8460,7183 8423,7217 8389,7254 8359,7295 8332,7338 8310,7383 8293,7431 8280,7482 8272,7534 8269,7587 8272,7640 8280,7692 8293,7742 8310,7790 8332,7836 8359,7879 8389,7919 8423,7957 8460,7990 8500,8020 8543,8047 8589,8069 8637,8086 8688,8099 8739,8107 8793,8110 8846,8107 8898,8099 8948,8086 8996,8069 9042,8047 9085,8020 9125,7990 9162,7957 9196,7919 9226,7879 9252,7836 9274,7790 9292,7742 9304,7692 9312,7640 9315,7587 Z"/></g><g/></g></g><g><desc>Drawing</desc><g><g style="stroke:none;fill:rgb(255,204,0)"><path d="M 9315,6380 L 9312,6327 9304,6275 9292,6225 9274,6177 9252,6131 9226,6088 9196,6048 9162,6011 9125,5977 9085,5947 9042,5920 8996,5898 8948,5881 8898,5868 8846,5860 8793,5857 8739,5860 8688,5868 8637,5881 8589,5898 8543,5920 8500,5947 8460,5977 8423,6011 8389,6048 8359,6088 8332,6131 8310,6177 8293,6225 8280,6275 8272,6327 8269,6380 8272,6433 8280,6485 8293,6536 8310,6584 8332,6629 8359,6672 8389,6713 8423,6750 8460,6784 8500,6814 8543,6840 8589,6862 8637,6880 8688,6892 8739,6900 8793,6903 8846,6900 8898,6892 8948,6880 8996,6862 9042,6840 9085,6814 9125,6784 9162,6750 9196,6713 9226,6672 9252,6629 9274,6584 9292,6536 9304,6485 9312,6433 9315,6380 Z"/></g><g/></g></g><g><desc>Drawing</desc><g><g style="stroke:none;fill:rgb(255,204,0)"><path d="M 9315,5174 L 9312,5120 9304,5068 9292,5018 9274,4970 9252,4924 9226,4881 9196,4841 9162,4804 9125,4770 9085,4740 9042,4714 8996,4692 8948,4674 8898,4662 8846,4654 8793,4651 8739,4654 8688,4662 8637,4674 8589,4692 8543,4714 8500,4740 8460,4770 8423,4804 8389,4841 8359,4881 8332,4924 8310,4970 8293,5018 8280,5068 8272,5120 8269,5174 8272,5227 8280,5279 8293,5329 8310,5377 8332,5423 8359,5466 8389,5506 8423,5544 8460,5577 8500,5607 8543,5634 8589,5656 8637,5673 8688,5686 8739,5694 8793,5697 8846,5694 8898,5686 8948,5673 8996,5656 9042,5634 9085,5607 9125,5577 9162,5544 9196,5506 9226,5466 9252,5423 9274,5377 9292,5329 9304,5279 9312,5227 9315,5174 Z"/></g><g/></g></g><g><desc>Drawing</desc><g><g style="stroke:none;fill:rgb(255,204,0)"><path d="M 9315,3966 L 9312,3913 9304,3861 9292,3811 9274,3763 9252,3717 9226,3674 9196,3634 9162,3597 9125,3563 9085,3533 9042,3507 8996,3485 8948,3467 8898,3455 8846,3447 8793,3444 8739,3447 8688,3455 8637,3467 8589,3485 8543,3507 8500,3533 8460,3563 8423,3597 8389,3634 8359,3674 8332,3717 8310,3763 8293,3811 8280,3861 8272,3913 8269,3966 8272,4020 8280,4072 8293,4122 8310,4170 8332,4216 8359,4259 8389,4299 8423,4336 8460,4370 8500,4400 8543,4426 8589,4448 8637,4466 8688,4478 8739,4486 8793,4489 8846,4486 8898,4478 8948,4466 8996,4448 9042,4426 9085,4400 9125,4370 9162,4336 9196,4299 9226,4259 9252,4216 9274,4170 9292,4122 9304,4072 9312,4020 9315,3966 Z"/></g><g/></g></g><g><desc>Drawing</desc><g><g style="stroke:none;fill:rgb(255,204,0)"><path d="M 9315,2760 L 9312,2707 9304,2655 9292,2604 9274,2556 9252,2511 9226,2468 9196,2427 9162,2390 9125,2356 9085,2326 9042,2300 8996,2278 8948,2260 8898,2248 8846,2240 8793,2237 8739,2240 8688,2248 8637,2260 8589,2278 8543,2300 8500,2326 8460,2356 8423,2390 8389,2427 8359,2468 8332,2511 8310,2556 8293,2604 8280,2655 8272,2707 8269,2760 8272,2813 8280,2865 8293,2915 8310,2963 8332,3009 8359,3052 8389,3092 8423,3130 8460,3163 8500,3193 8543,3220 8589,3242 8637,3259 8688,3272 8739,3280 8793,3283 8846,3280 8898,3272 8948,3259 8996,3242 9042,3220 9085,3193 9125,3163 9162,3130 9196,3092 9226,3052 9252,3009 9274,2963 9292,2915 9304,2865 9312,2813 9315,2760 Z"/></g><g/></g></g><g><desc>Drawing</desc><g><g style="stroke:none;fill:rgb(255,204,0)"><path d="M 9315,1554 L 9312,1501 9304,1449 9292,1398 9274,1350 9252,1305 9226,1262 9196,1221 9162,1184 9125,1150 9085,1120 9042,1094 8996,1072 8948,1054 8898,1042 8846,1034 8793,1031 8739,1034 8688,1042 8637,1054 8589,1072 8543,1094 8500,1120 8460,1150 8423,1184 8389,1221 8359,1262 8332,1305 8310,1350 8293,1398 8280,1449 8272,1501 8269,1554 8272,1607 8280,1659 8293,1709 8310,1757 8332,1803 8359,1846 8389,1886 8423,1923 8460,1957 8500,1987 8543,2013 8589,2035 8637,2053 8688,2065 8739,2073 8793,2076 8846,2073 8898,2065 8948,2053 8996,2035 9042,2013 9085,1987 9125,1957 9162,1923 9196,1886 9226,1846 9252,1803 9274,1757 9292,1709 9304,1659 9312,1607 9315,1554 Z"/></g><g/></g></g><g><desc>Drawing</desc><g><g style="stroke:none;fill:rgb(51,204,204)"><path d="M 10522,1554 L 10519,1501 10511,1449 10499,1398 10481,1350 10459,1305 10433,1262 10403,1221 10369,1184 10332,1150 10291,1120 10248,1094 10203,1072 10155,1054 10104,1042 10052,1034 9999,1031 9946,1034 9894,1042 9844,1054 9796,1072 9750,1094 9707,1120 9667,1150 9630,1184 9596,1221 9566,1262 9540,1305 9518,1350 9500,1398 9488,1449 9480,1501 9477,1554 9480,1607 9488,1659 9500,1709 9518,1757 9540,1803 9566,1846 9596,1886 9630,1923 9667,1957 9707,1987 9750,2013 9796,2035 9844,2053 9894,2065 9946,2073 9999,2076 10052,2073 10104,2065 10155,2053 10203,2035 10248,2013 10291,1987 10332,1957 10369,1923 10403,1886 10433,1846 10459,1803 10481,1757 10499,1709 10511,1659 10519,1607 10522,1554 Z"/></g><g/></g></g><g><desc>Drawing</desc><g><g style="stroke:none;fill:rgb(153,204,0)"><path d="M 9315,17240 L 9312,17187 9304,17135 9292,17085 9274,17037 9252,16991 9226,16948 9196,16908 9162,16871 9125,16837 9085,16807 9042,16781 8996,16759 8948,16741 8898,16729 8846,16721 8793,16718 8739,16721 8688,16729 8637,16741 8589,16759 8543,16781 8500,16807 8460,16837 8423,16871 8389,16908 8359,16948 8332,16991 8310,17037 8293,17085 8280,17135 8272,17187 8269,17240 8272,17293 8280,17345 8293,17396 8310,17444 8332,17489 8359,17532 8389,17573 8423,17610 8460,17644 8500,17674 8543,17700 8589,17722 8637,17740 8688,17752 8739,17760 8793,17763 8846,17760 8898,17752 8948,17740 8996,17722 9042,17700 9085,17674 9125,17644 9162,17610 9196,17573 9226,17532 9252,17489 9274,17444 9292,17396 9304,17345 9312,17293 9315,17240 Z"/></g><g/></g></g><g><desc>Drawing</desc><g><g style="stroke:none;fill:rgb(153,204,0)"><path d="M 9315,16034 L 9312,15980 9304,15928 9292,15878 9274,15830 9252,15784 9226,15741 9196,15701 9162,15664 9125,15630 9085,15600 9042,15574 8996,15552 8948,15534 8898,15522 8846,15514 8793,15511 8739,15514 8688,15522 8637,15534 8589,15552 8543,15574 8500,15600 8460,15630 8423,15664 8389,15701 8359,15741 8332,15784 8310,15830 8293,15878 8280,15928 8272,15980 8269,16034 8272,16087 8280,16139 8293,16189 8310,16237 8332,16283 8359,16326 8389,16366 8423,16404 8460,16437 8500,16467 8543,16494 8589,16516 8637,16533 8688,16546 8739,16554 8793,16557 8846,16554 8898,16546 8948,16533 8996,16516 9042,16494 9085,16467 9125,16437 9162,16404 9196,16366 9226,16326 9252,16283 9274,16237 9292,16189 9304,16139 9312,16087 9315,16034 Z"/></g><g/></g></g><g><desc>Drawing</desc><g><g style="stroke:none;fill:rgb(153,204,0)"><path d="M 9315,14826 L 9312,14773 9304,14721 9292,14671 9274,14623 9252,14577 9226,14534 9196,14494 9162,14457 9125,14423 9085,14393 9042,14367 8996,14345 8948,14327 8898,14315 8846,14307 8793,14304 8739,14307 8688,14315 8637,14327 8589,14345 8543,14367 8500,14393 8460,14423 8423,14457 8389,14494 8359,14534 8332,14577 8310,14623 8293,14671 8280,14721 8272,14773 8269,14826 8272,14880 8280,14932 8293,14982 8310,15030 8332,15076 8359,15119 8389,15159 8423,15196 8460,15230 8500,15260 8543,15286 8589,15308 8637,15326 8688,15338 8739,15346 8793,15349 8846,15346 8898,15338 8948,15326 8996,15308 9042,15286 9085,15260 9125,15230 9162,15196 9196,15159 9226,15119 9252,15076 9274,15030 9292,14982 9304,14932 9312,14880 9315,14826 Z"/></g><g/></g></g><g><desc>Drawing</desc><g><g style="stroke:none;fill:rgb(153,204,0)"><path d="M 9315,13620 L 9312,13567 9304,13515 9292,13465 9274,13417 9252,13371 9226,13328 9196,13288 9162,13251 9125,13217 9085,13187 9042,13160 8996,13138 8948,13121 8898,13108 8846,13100 8793,13097 8739,13100 8688,13108 8637,13121 8589,13138 8543,13160 8500,13187 8460,13217 8423,13251 8389,13288 8359,13328 8332,13371 8310,13417 8293,13465 8280,13515 8272,13567 8269,13620 8272,13673 8280,13725 8293,13775 8310,13823 8332,13869 8359,13912 8389,13952 8423,13990 8460,14023 8500,14053 8543,14080 8589,14102 8637,14119 8688,14132 8739,14140 8793,14143 8846,14140 8898,14132 8948,14119 8996,14102 9042,14080 9085,14053 9125,14023 9162,13990 9196,13952 9226,13912 9252,13869 9274,13823 9292,13775 9304,13725 9312,13673 9315,13620 Z"/></g><g/></g></g><g><desc>Drawing</desc><g><g style="stroke:none;fill:rgb(153,204,0)"><path d="M 9315,12414 L 9312,12361 9304,12309 9292,12258 9274,12210 9252,12165 9226,12122 9196,12081 9162,12044 9125,12010 9085,11980 9042,11954 8996,11932 8948,11914 8898,11902 8846,11894 8793,11891 8739,11894 8688,11902 8637,11914 8589,11932 8543,11954 8500,11980 8460,12010 8423,12044 8389,12081 8359,12122 8332,12165 8310,12210 8293,12258 8280,12309 8272,12361 8269,12414 8272,12467 8280,12519 8293,12569 8310,12617 8332,12663 8359,12706 8389,12746 8423,12784 8460,12817 8500,12847 8543,12874 8589,12896 8637,12913 8688,12926 8739,12934 8793,12937 8846,12934 8898,12926 8948,12913 8996,12896 9042,12874 9085,12847 9125,12817 9162,12784 9196,12746 9226,12706 9252,12663 9274,12617 9292,12569 9304,12519 9312,12467 9315,12414 Z"/></g><g/></g></g><g><desc>Drawing</desc><g><g style="stroke:none;fill:rgb(153,204,0)"><path d="M 10522,18447 L 10519,18394 10511,18342 10499,18291 10481,18243 10459,18198 10433,18155 10403,18114 10369,18077 10332,18043 10291,18013 10248,17987 10203,17965 10155,17947 10104,17935 10052,17927 9999,17924 9946,17927 9894,17935 9844,17947 9796,17965 9750,17987 9707,18013 9667,18043 9630,18077 9596,18114 9566,18155 9540,18198 9518,18243 9500,18291 9488,18342 9480,18394 9477,18447 9480,18500 9488,18552 9500,18602 9518,18650 9540,18696 9566,18739 9596,18780 9630,18817 9667,18851 9707,18881 9750,18907 9796,18930 9844,18947 9894,18960 9946,18968 9999,18971 10052,18968 10104,18960 10155,18947 10203,18930 10248,18907 10291,18881 10332,18851 10369,18817 10403,18780 10433,18739 10459,18696 10481,18650 10499,18602 10511,18552 10519,18500 10522,18447 Z"/></g><g/></g></g><g><desc>Drawing</desc><g><g style="stroke:none;fill:rgb(255,51,0)"><path d="M 11728,11207 L 11725,11154 11717,11102 11705,11052 11687,11004 11665,10958 11639,10915 11609,10875 11576,10838 11539,10804 11498,10774 11455,10747 11410,10725 11362,10708 11312,10695 11260,10687 11207,10684 11153,10687 11101,10695 11051,10708 11003,10725 10957,10747 10914,10774 10873,10804 10836,10838 10802,10875 10772,10915 10746,10958 10724,11004 10707,11052 10694,11102 10686,11154 10683,11207 10686,11260 10694,11312 10707,11363 10724,11411 10746,11456 10772,11499 10802,11540 10836,11577 10873,11611 10914,11641 10957,11667 11003,11689 11051,11707 11101,11719 11153,11727 11207,11730 11260,11727 11312,11719 11362,11707 11410,11689 11455,11667 11498,11641 11539,11611 11576,11577 11609,11540 11639,11499 11665,11456 11687,11411 11705,11363 11717,11312 11725,11260 11728,11207 Z"/></g><g/></g></g><g><desc>Drawing</desc><g><g style="stroke:none;fill:rgb(255,51,0)"><path d="M 11728,18447 L 11725,18394 11717,18342 11705,18291 11687,18243 11665,18198 11639,18155 11609,18114 11576,18077 11539,18043 11498,18013 11455,17987 11410,17965 11362,17947 11312,17935 11260,17927 11207,17924 11153,17927 11101,17935 11051,17947 11003,17965 10957,17987 10914,18013 10873,18043 10836,18077 10802,18114 10772,18155 10746,18198 10724,18243 10707,18291 10694,18342 10686,18394 10683,18447 10686,18500 10694,18552 10707,18602 10724,18650 10746,18696 10772,18739 10802,18780 10836,18817 10873,18851 10914,18881 10957,18907 11003,18930 11051,18947 11101,18960 11153,18968 11207,18971 11260,18968 11312,18960 11362,18947 11410,18930 11455,18907 11498,18881 11539,18851 11576,18817 11609,18780 11639,18739 11665,18696 11687,18650 11705,18602 11717,18552 11725,18500 11728,18447 Z"/></g><g/></g></g><g><desc>Drawing</desc><g><g style="stroke:none;fill:rgb(255,51,0)"><path d="M 11728,17240 L 11725,17187 11717,17135 11705,17085 11687,17037 11665,16991 11639,16948 11609,16908 11576,16871 11539,16837 11498,16807 11455,16781 11410,16759 11362,16741 11312,16729 11260,16721 11207,16718 11153,16721 11101,16729 11051,16741 11003,16759 10957,16781 10914,16807 10873,16837 10836,16871 10802,16908 10772,16948 10746,16991 10724,17037 10707,17085 10694,17135 10686,17187 10683,17240 10686,17293 10694,17345 10707,17396 10724,17444 10746,17489 10772,17532 10802,17573 10836,17610 10873,17644 10914,17674 10957,17700 11003,17722 11051,17740 11101,17752 11153,17760 11207,17763 11260,17760 11312,17752 11362,17740 11410,17722 11455,17700 11498,17674 11539,17644 11576,17610 11609,17573 11639,17532 11665,17489 11687,17444 11705,17396 11717,17345 11725,17293 11728,17240 Z"/></g><g/></g></g><g><desc>Drawing</desc><g><g style="stroke:none;fill:rgb(255,51,0)"><path d="M 11728,16034 L 11725,15980 11717,15928 11705,15878 11687,15830 11665,15784 11639,15741 11609,15701 11576,15664 11539,15630 11498,15600 11455,15574 11410,15552 11362,15534 11312,15522 11260,15514 11207,15511 11153,15514 11101,15522 11051,15534 11003,15552 10957,15574 10914,15600 10873,15630 10836,15664 10802,15701 10772,15741 10746,15784 10724,15830 10707,15878 10694,15928 10686,15980 10683,16034 10686,16087 10694,16139 10707,16189 10724,16237 10746,16283 10772,16326 10802,16366 10836,16404 10873,16437 10914,16467 10957,16494 11003,16516 11051,16533 11101,16546 11153,16554 11207,16557 11260,16554 11312,16546 11362,16533 11410,16516 11455,16494 11498,16467 11539,16437 11576,16404 11609,16366 11639,16326 11665,16283 11687,16237 11705,16189 11717,16139 11725,16087 11728,16034 Z"/></g><g/></g></g><g><desc>Drawing</desc><g><g style="stroke:none;fill:rgb(255,51,0)"><path d="M 11728,14826 L 11725,14773 11717,14721 11705,14671 11687,14623 11665,14577 11639,14534 11609,14494 11576,14457 11539,14423 11498,14393 11455,14367 11410,14345 11362,14327 11312,14315 11260,14307 11207,14304 11153,14307 11101,14315 11051,14327 11003,14345 10957,14367 10914,14393 10873,14423 10836,14457 10802,14494 10772,14534 10746,14577 10724,14623 10707,14671 10694,14721 10686,14773 10683,14826 10686,14880 10694,14932 10707,14982 10724,15030 10746,15076 10772,15119 10802,15159 10836,15196 10873,15230 10914,15260 10957,15286 11003,15308 11051,15326 11101,15338 11153,15346 11207,15349 11260,15346 11312,15338 11362,15326 11410,15308 11455,15286 11498,15260 11539,15230 11576,15196 11609,15159 11639,15119 11665,15076 11687,15030 11705,14982 11717,14932 11725,14880 11728,14826 Z"/></g><g/></g></g><g><desc>Drawing</desc><g><g style="stroke:none;fill:rgb(255,51,0)"><path d="M 11728,13620 L 11725,13567 11717,13515 11705,13465 11687,13417 11665,13371 11639,13328 11609,13288 11576,13251 11539,13217 11498,13187 11455,13160 11410,13138 11362,13121 11312,13108 11260,13100 11207,13097 11153,13100 11101,13108 11051,13121 11003,13138 10957,13160 10914,13187 10873,13217 10836,13251 10802,13288 10772,13328 10746,13371 10724,13417 10707,13465 10694,13515 10686,13567 10683,13620 10686,13673 10694,13725 10707,13775 10724,13823 10746,13869 10772,13912 10802,13952 10836,13990 10873,14023 10914,14053 10957,14080 11003,14102 11051,14119 11101,14132 11153,14140 11207,14143 11260,14140 11312,14132 11362,14119 11410,14102 11455,14080 11498,14053 11539,14023 11576,13990 11609,13952 11639,13912 11665,13869 11687,13823 11705,13775 11717,13725 11725,13673 11728,13620 Z"/></g><g/></g></g><g><desc>Drawing</desc><g><g style="stroke:none;fill:rgb(255,51,0)"><path d="M 11728,12414 L 11725,12361 11717,12309 11705,12258 11687,12210 11665,12165 11639,12122 11609,12081 11576,12044 11539,12010 11498,11980 11455,11954 11410,11932 11362,11914 11312,11902 11260,11894 11207,11891 11153,11894 11101,11902 11051,11914 11003,11932 10957,11954 10914,11980 10873,12010 10836,12044 10802,12081 10772,12122 10746,12165 10724,12210 10707,12258 10694,12309 10686,12361 10683,12414 10686,12467 10694,12519 10707,12569 10724,12617 10746,12663 10772,12706 10802,12746 10836,12784 10873,12817 10914,12847 10957,12874 11003,12896 11051,12913 11101,12926 11153,12934 11207,12937 11260,12934 11312,12926 11362,12913 11410,12896 11455,12874 11498,12847 11539,12817 11576,12784 11609,12746 11639,12706 11665,12663 11687,12617 11705,12569 11717,12519 11725,12467 11728,12414 Z"/></g><g/></g></g><g><desc>Drawing</desc><g><g style="stroke:none;fill:rgb(51,204,204)"><path d="M 11728,8793 L 11725,8740 11717,8688 11705,8638 11687,8590 11665,8544 11639,8501 11609,8461 11576,8424 11539,8390 11498,8360 11455,8333 11410,8311 11362,8294 11312,8281 11260,8273 11207,8270 11153,8273 11101,8281 11051,8294 11003,8311 10957,8333 10914,8360 10873,8390 10836,8424 10802,8461 10772,8501 10746,8544 10724,8590 10707,8638 10694,8688 10686,8740 10683,8793 10686,8847 10694,8899 10707,8949 10724,8997 10746,9043 10772,9086 10802,9126 10836,9163 10873,9197 10914,9227 10957,9253 11003,9275 11051,9293 11101,9305 11153,9313 11207,9316 11260,9313 11312,9305 11362,9293 11410,9275 11455,9253 11498,9227 11539,9197 11576,9163 11609,9126 11639,9086 11665,9043 11687,8997 11705,8949 11717,8899 11725,8847 11728,8793 Z"/></g><g/></g></g><g><desc>Drawing</desc><g><g style="stroke:none;fill:rgb(51,204,204)"><path d="M 11728,7587 L 11725,7534 11717,7482 11705,7431 11687,7383 11665,7338 11639,7295 11609,7254 11576,7217 11539,7183 11498,7153 11455,7127 11410,7105 11362,7087 11312,7075 11260,7067 11207,7064 11153,7067 11101,7075 11051,7087 11003,7105 10957,7127 10914,7153 10873,7183 10836,7217 10802,7254 10772,7295 10746,7338 10724,7383 10707,7431 10694,7482 10686,7534 10683,7587 10686,7640 10694,7692 10707,7742 10724,7790 10746,7836 10772,7879 10802,7919 10836,7957 10873,7990 10914,8020 10957,8047 11003,8069 11051,8086 11101,8099 11153,8107 11207,8110 11260,8107 11312,8099 11362,8086 11410,8069 11455,8047 11498,8020 11539,7990 11576,7957 11609,7919 11639,7879 11665,7836 11687,7790 11705,7742 11717,7692 11725,7640 11728,7587 Z"/></g><g/></g></g><g><desc>Drawing</desc><g><g style="stroke:none;fill:rgb(51,204,204)"><path d="M 11728,6380 L 11725,6327 11717,6275 11705,6225 11687,6177 11665,6131 11639,6088 11609,6048 11576,6011 11539,5977 11498,5947 11455,5920 11410,5898 11362,5881 11312,5868 11260,5860 11207,5857 11153,5860 11101,5868 11051,5881 11003,5898 10957,5920 10914,5947 10873,5977 10836,6011 10802,6048 10772,6088 10746,6131 10724,6177 10707,6225 10694,6275 10686,6327 10683,6380 10686,6433 10694,6485 10707,6536 10724,6584 10746,6629 10772,6672 10802,6713 10836,6750 10873,6784 10914,6814 10957,6840 11003,6862 11051,6880 11101,6892 11153,6900 11207,6903 11260,6900 11312,6892 11362,6880 11410,6862 11455,6840 11498,6814 11539,6784 11576,6750 11609,6713 11639,6672 11665,6629 11687,6584 11705,6536 11717,6485 11725,6433 11728,6380 Z"/></g><g/></g></g><g><desc>Drawing</desc><g><g style="stroke:none;fill:rgb(51,204,204)"><path d="M 11728,5174 L 11725,5120 11717,5068 11705,5018 11687,4970 11665,4924 11639,4881 11609,4841 11576,4804 11539,4770 11498,4740 11455,4714 11410,4692 11362,4674 11312,4662 11260,4654 11207,4651 11153,4654 11101,4662 11051,4674 11003,4692 10957,4714 10914,4740 10873,4770 10836,4804 10802,4841 10772,4881 10746,4924 10724,4970 10707,5018 10694,5068 10686,5120 10683,5174 10686,5227 10694,5279 10707,5329 10724,5377 10746,5423 10772,5466 10802,5506 10836,5544 10873,5577 10914,5607 10957,5634 11003,5656 11051,5673 11101,5686 11153,5694 11207,5697 11260,5694 11312,5686 11362,5673 11410,5656 11455,5634 11498,5607 11539,5577 11576,5544 11609,5506 11639,5466 11665,5423 11687,5377 11705,5329 11717,5279 11725,5227 11728,5174 Z"/></g><g/></g></g><g><desc>Drawing</desc><g><g style="stroke:none;fill:rgb(51,204,204)"><path d="M 11728,3966 L 11725,3913 11717,3861 11705,3811 11687,3763 11665,3717 11639,3674 11609,3634 11576,3597 11539,3563 11498,3533 11455,3507 11410,3485 11362,3467 11312,3455 11260,3447 11207,3444 11153,3447 11101,3455 11051,3467 11003,3485 10957,3507 10914,3533 10873,3563 10836,3597 10802,3634 10772,3674 10746,3717 10724,3763 10707,3811 10694,3861 10686,3913 10683,3966 10686,4020 10694,4072 10707,4122 10724,4170 10746,4216 10772,4259 10802,4299 10836,4336 10873,4370 10914,4400 10957,4426 11003,4448 11051,4466 11101,4478 11153,4486 11207,4489 11260,4486 11312,4478 11362,4466 11410,4448 11455,4426 11498,4400 11539,4370 11576,4336 11609,4299 11639,4259 11665,4216 11687,4170 11705,4122 11717,4072 11725,4020 11728,3966 Z"/></g><g/></g></g><g><desc>Drawing</desc><g><g style="stroke:none;fill:rgb(51,204,204)"><path d="M 11728,2760 L 11725,2707 11717,2655 11705,2604 11687,2556 11665,2511 11639,2468 11609,2427 11576,2390 11539,2356 11498,2326 11455,2300 11410,2278 11362,2260 11312,2248 11260,2240 11207,2237 11153,2240 11101,2248 11051,2260 11003,2278 10957,2300 10914,2326 10873,2356 10836,2390 10802,2427 10772,2468 10746,2511 10724,2556 10707,2604 10694,2655 10686,2707 10683,2760 10686,2813 10694,2865 10707,2915 10724,2963 10746,3009 10772,3052 10802,3092 10836,3130 10873,3163 10914,3193 10957,3220 11003,3242 11051,3259 11101,3272 11153,3280 11207,3283 11260,3280 11312,3272 11362,3259 11410,3242 11455,3220 11498,3193 11539,3163 11576,3130 11609,3092 11639,3052 11665,3009 11687,2963 11705,2915 11717,2865 11725,2813 11728,2760 Z"/></g><g/></g></g><g><desc>Drawing</desc><g><g style="stroke:none;fill:rgb(255,51,0)"><path d="M 15349,11207 L 15346,11154 15338,11102 15325,11052 15308,11004 15286,10958 15260,10915 15230,10875 15196,10838 15159,10804 15118,10774 15075,10747 15029,10725 14981,10708 14931,10695 14879,10687 14825,10684 14772,10687 14720,10695 14670,10708 14622,10725 14576,10747 14533,10774 14493,10804 14456,10838 14422,10875 14392,10915 14366,10958 14344,11004 14326,11052 14314,11102 14306,11154 14303,11207 14306,11260 14314,11312 14326,11363 14344,11411 14366,11456 14392,11499 14422,11540 14456,11577 14493,11611 14533,11641 14576,11667 14622,11689 14670,11707 14720,11719 14772,11727 14825,11730 14879,11727 14931,11719 14981,11707 15029,11689 15075,11667 15118,11641 15159,11611 15196,11577 15230,11540 15260,11499 15286,11456 15308,11411 15325,11363 15338,11312 15346,11260 15349,11207 Z"/></g><g/></g></g><g><desc>Drawing</desc><g><g style="stroke:none;fill:rgb(255,51,0)"><path d="M 14142,11207 L 14139,11154 14131,11102 14119,11052 14101,11004 14079,10958 14053,10915 14023,10875 13989,10838 13952,10804 13912,10774 13869,10747 13823,10725 13775,10708 13725,10695 13673,10687 13619,10684 13566,10687 13514,10695 13464,10708 13416,10725 13370,10747 13327,10774 13287,10804 13250,10838 13216,10875 13186,10915 13159,10958 13137,11004 13120,11052 13107,11102 13099,11154 13096,11207 13099,11260 13107,11312 13120,11363 13137,11411 13159,11456 13186,11499 13216,11540 13250,11577 13287,11611 13327,11641 13370,11667 13416,11689 13464,11707 13514,11719 13566,11727 13619,11730 13673,11727 13725,11719 13775,11707 13823,11689 13869,11667 13912,11641 13952,11611 13989,11577 14023,11540 14053,11499 14079,11456 14101,11411 14119,11363 14131,11312 14139,11260 14142,11207 Z"/></g><g/></g></g><g><desc>Drawing</desc><g><g style="stroke:none;fill:rgb(255,51,0)"><path d="M 12936,11207 L 12933,11154 12925,11102 12912,11052 12895,11004 12873,10958 12846,10915 12816,10875 12783,10838 12745,10804 12705,10774 12662,10747 12616,10725 12568,10708 12518,10695 12466,10687 12413,10684 12360,10687 12308,10695 12258,10708 12210,10725 12164,10747 12121,10774 12081,10804 12044,10838 12010,10875 11980,10915 11953,10958 11931,11004 11914,11052 11901,11102 11893,11154 11890,11207 11893,11260 11901,11312 11914,11363 11931,11411 11953,11456 11980,11499 12010,11540 12044,11577 12081,11611 12121,11641 12164,11667 12210,11689 12258,11707 12308,11719 12360,11727 12413,11730 12466,11727 12518,11719 12568,11707 12616,11689 12662,11667 12705,11641 12745,11611 12783,11577 12816,11540 12846,11499 12873,11456 12895,11411 12912,11363 12925,11312 12933,11260 12936,11207 Z"/></g><g/></g></g><g><desc>Drawing</desc><g><g style="stroke:none;fill:rgb(255,51,0)"><path d="M 18970,10001 L 18967,9947 18959,9895 18946,9845 18929,9797 18907,9751 18880,9708 18850,9668 18816,9631 18779,9597 18739,9567 18696,9541 18650,9519 18602,9501 18551,9489 18500,9481 18446,9478 18393,9481 18341,9489 18290,9501 18242,9519 18197,9541 18154,9567 18113,9597 18076,9631 18042,9668 18012,9708 17986,9751 17964,9797 17946,9845 17934,9895 17926,9947 17923,10001 17926,10054 17934,10106 17946,10156 17964,10204 17986,10250 18012,10293 18042,10333 18076,10371 18113,10404 18154,10434 18197,10461 18242,10483 18290,10500 18341,10513 18393,10521 18446,10524 18500,10521 18551,10513 18602,10500 18650,10483 18696,10461 18739,10434 18779,10404 18816,10371 18850,10333 18880,10293 18907,10250 18929,10204 18946,10156 18959,10106 18967,10054 18970,10001 Z"/></g><g/></g></g><g><desc>Drawing</desc><g><g style="stroke:none;fill:rgb(255,51,0)"><path d="M 17763,11207 L 17760,11154 17752,11102 17739,11052 17722,11004 17700,10958 17673,10915 17643,10875 17609,10838 17572,10804 17532,10774 17489,10747 17443,10725 17395,10708 17344,10695 17293,10687 17239,10684 17186,10687 17134,10695 17084,10708 17036,10725 16990,10747 16947,10774 16907,10804 16870,10838 16836,10875 16806,10915 16780,10958 16758,11004 16740,11052 16728,11102 16720,11154 16717,11207 16720,11260 16728,11312 16740,11363 16758,11411 16780,11456 16806,11499 16836,11540 16870,11577 16907,11611 16947,11641 16990,11667 17036,11689 17084,11707 17134,11719 17186,11727 17239,11730 17293,11727 17344,11719 17395,11707 17443,11689 17489,11667 17532,11641 17572,11611 17609,11577 17643,11540 17673,11499 17700,11456 17722,11411 17739,11363 17752,11312 17760,11260 17763,11207 Z"/></g><g/></g></g><g><desc>Drawing</desc><g><g style="stroke:none;fill:rgb(255,51,0)"><path d="M 16555,11207 L 16552,11154 16544,11102 16532,11052 16514,11004 16492,10958 16466,10915 16436,10875 16402,10838 16365,10804 16325,10774 16282,10747 16236,10725 16188,10708 16138,10695 16086,10687 16033,10684 15980,10687 15928,10695 15877,10708 15829,10725 15784,10747 15741,10774 15700,10804 15663,10838 15629,10875 15599,10915 15573,10958 15551,11004 15533,11052 15521,11102 15513,11154 15510,11207 15513,11260 15521,11312 15533,11363 15551,11411 15573,11456 15599,11499 15629,11540 15663,11577 15700,11611 15741,11641 15784,11667 15829,11689 15877,11707 15928,11719 15980,11727 16033,11730 16086,11727 16138,11719 16188,11707 16236,11689 16282,11667 16325,11641 16365,11611 16402,11577 16436,11540 16466,11499 16492,11456 16514,11411 16532,11363 16544,11312 16552,11260 16555,11207 Z"/></g><g/></g></g><g><desc>Drawing</desc><g><g style="stroke:none;fill:rgb(51,204,204)"><path d="M 15349,8793 L 15346,8740 15338,8688 15325,8638 15308,8590 15286,8544 15260,8501 15230,8461 15196,8424 15159,8390 15118,8360 15075,8333 15029,8311 14981,8294 14931,8281 14879,8273 14825,8270 14772,8273 14720,8281 14670,8294 14622,8311 14576,8333 14533,8360 14493,8390 14456,8424 14422,8461 14392,8501 14366,8544 14344,8590 14326,8638 14314,8688 14306,8740 14303,8793 14306,8847 14314,8899 14326,8949 14344,8997 14366,9043 14392,9086 14422,9126 14456,9163 14493,9197 14533,9227 14576,9253 14622,9275 14670,9293 14720,9305 14772,9313 14825,9316 14879,9313 14931,9305 14981,9293 15029,9275 15075,9253 15118,9227 15159,9197 15196,9163 15230,9126 15260,9086 15286,9043 15308,8997 15325,8949 15338,8899 15346,8847 15349,8793 Z"/></g><g/></g></g><g><desc>Drawing</desc><g><g style="stroke:none;fill:rgb(51,204,204)"><path d="M 14142,8793 L 14139,8740 14131,8688 14119,8638 14101,8590 14079,8544 14053,8501 14023,8461 13989,8424 13952,8390 13912,8360 13869,8333 13823,8311 13775,8294 13725,8281 13673,8273 13619,8270 13566,8273 13514,8281 13464,8294 13416,8311 13370,8333 13327,8360 13287,8390 13250,8424 13216,8461 13186,8501 13159,8544 13137,8590 13120,8638 13107,8688 13099,8740 13096,8793 13099,8847 13107,8899 13120,8949 13137,8997 13159,9043 13186,9086 13216,9126 13250,9163 13287,9197 13327,9227 13370,9253 13416,9275 13464,9293 13514,9305 13566,9313 13619,9316 13673,9313 13725,9305 13775,9293 13823,9275 13869,9253 13912,9227 13952,9197 13989,9163 14023,9126 14053,9086 14079,9043 14101,8997 14119,8949 14131,8899 14139,8847 14142,8793 Z"/></g><g/></g></g><g><desc>Drawing</desc><g><g style="stroke:none;fill:rgb(51,204,204)"><path d="M 12936,8793 L 12933,8740 12925,8688 12912,8638 12895,8590 12873,8544 12846,8501 12816,8461 12783,8424 12745,8390 12705,8360 12662,8333 12616,8311 12568,8294 12518,8281 12466,8273 12413,8270 12360,8273 12308,8281 12258,8294 12210,8311 12164,8333 12121,8360 12081,8390 12044,8424 12010,8461 11980,8501 11953,8544 11931,8590 11914,8638 11901,8688 11893,8740 11890,8793 11893,8847 11901,8899 11914,8949 11931,8997 11953,9043 11980,9086 12010,9126 12044,9163 12081,9197 12121,9227 12164,9253 12210,9275 12258,9293 12308,9305 12360,9313 12413,9316 12466,9313 12518,9305 12568,9293 12616,9275 12662,9253 12705,9227 12745,9197 12783,9163 12816,9126 12846,9086 12873,9043 12895,8997 12912,8949 12925,8899 12933,8847 12936,8793 Z"/></g><g/></g></g><g><desc>Drawing</desc><g><g style="stroke:none;fill:rgb(51,204,204)"><path d="M 18970,8793 L 18967,8740 18959,8688 18946,8638 18929,8590 18907,8544 18880,8501 18850,8461 18816,8424 18779,8390 18739,8360 18696,8333 18650,8311 18602,8294 18551,8281 18500,8273 18446,8270 18393,8273 18341,8281 18290,8294 18242,8311 18197,8333 18154,8360 18113,8390 18076,8424 18042,8461 18012,8501 17986,8544 17964,8590 17946,8638 17934,8688 17926,8740 17923,8793 17926,8847 17934,8899 17946,8949 17964,8997 17986,9043 18012,9086 18042,9126 18076,9163 18113,9197 18154,9227 18197,9253 18242,9275 18290,9293 18341,9305 18393,9313 18446,9316 18500,9313 18551,9305 18602,9293 18650,9275 18696,9253 18739,9227 18779,9197 18816,9163 18850,9126 18880,9086 18907,9043 18929,8997 18946,8949 18959,8899 18967,8847 18970,8793 Z"/></g><g/></g></g><g><desc>Drawing</desc><g><g style="stroke:none;fill:rgb(51,204,204)"><path d="M 17763,8793 L 17760,8740 17752,8688 17739,8638 17722,8590 17700,8544 17673,8501 17643,8461 17609,8424 17572,8390 17532,8360 17489,8333 17443,8311 17395,8294 17344,8281 17293,8273 17239,8270 17186,8273 17134,8281 17084,8294 17036,8311 16990,8333 16947,8360 16907,8390 16870,8424 16836,8461 16806,8501 16780,8544 16758,8590 16740,8638 16728,8688 16720,8740 16717,8793 16720,8847 16728,8899 16740,8949 16758,8997 16780,9043 16806,9086 16836,9126 16870,9163 16907,9197 16947,9227 16990,9253 17036,9275 17084,9293 17134,9305 17186,9313 17239,9316 17293,9313 17344,9305 17395,9293 17443,9275 17489,9253 17532,9227 17572,9197 17609,9163 17643,9126 17673,9086 17700,9043 17722,8997 17739,8949 17752,8899 17760,8847 17763,8793 Z"/></g><g/></g></g><g><desc>Drawing</desc><g><g style="stroke:none;fill:rgb(51,204,204)"><path d="M 16555,8793 L 16552,8740 16544,8688 16532,8638 16514,8590 16492,8544 16466,8501 16436,8461 16402,8424 16365,8390 16325,8360 16282,8333 16236,8311 16188,8294 16138,8281 16086,8273 16033,8270 15980,8273 15928,8281 15877,8294 15829,8311 15784,8333 15741,8360 15700,8390 15663,8424 15629,8461 15599,8501 15573,8544 15551,8590 15533,8638 15521,8688 15513,8740 15510,8793 15513,8847 15521,8899 15533,8949 15551,8997 15573,9043 15599,9086 15629,9126 15663,9163 15700,9197 15741,9227 15784,9253 15829,9275 15877,9293 15928,9305 15980,9313 16033,9316 16086,9313 16138,9305 16188,9293 16236,9275 16282,9253 16325,9227 16365,9197 16402,9163 16436,9126 16466,9086 16492,9043 16514,8997 16532,8949 16544,8899 16552,8847 16555,8793 Z"/></g><g/></g></g><g><desc>Drawing</desc><g><g style="stroke:none;fill:rgb(148,228,228)"><path d="M 10522,9478 L 9477,9478 9999,10001 10522,9478 Z"/></g><g/></g></g><g><desc>Drawing</desc><g><g style="stroke:none;fill:rgb(255,230,130)"><path d="M 9477,10524 L 9999,10001 9477,9478 9477,10524 Z"/></g><g/></g></g><g><desc>Drawing</desc><g><g style="stroke:none;fill:rgb(206,255,60)"><path d="M 10522,10524 L 9999,10001 9477,10524 10522,10524 Z"/></g><g/></g></g><g><desc>Drawing</desc><g><g style="stroke:none;fill:rgb(255,136,106)"><path d="M 10522,10524 L 10522,9478 9999,10001 10522,10524 Z"/></g><g/></g></g><g><desc>Drawing</desc><g><g style="stroke:none;fill:rgb(255,204,0)"><path d="M 1029,1031 L 1029,8110 8109,8110 8109,1031 1029,1031 Z"/></g><g/></g></g><g><desc>Drawing</desc><g><g style="stroke:none;fill:rgb(255,230,130)"><path d="M 1351,1353 L 1351,7788 7787,7788 7787,1353 1351,1353 Z"/></g><g/></g></g><g><desc>Drawing</desc><g><g style="stroke:none;fill:rgb(255,204,0)"><path d="M 2075,8793 L 2075,8793 2072,8740 2064,8688 2052,8638 2034,8590 2012,8544 1986,8501 1956,8461 1922,8424 1885,8390 1845,8360 1802,8333 1756,8311 1708,8294 1658,8281 1606,8273 1553,8270 1499,8273 1448,8281 1397,8294 1349,8311 1303,8333 1260,8360 1220,8390 1183,8424 1149,8461 1119,8501 1092,8544 1070,8590 1053,8638 1040,8688 1032,8740 1029,8793 1032,8847 1040,8899 1053,8949 1070,8997 1092,9043 1119,9086 1149,9126 1183,9163 1220,9197 1260,9227 1303,9253 1349,9275 1397,9293 1448,9305 1499,9313 1553,9316 1606,9313 1658,9305 1708,9293 1756,9275 1802,9253 1845,9227 1885,9197 1922,9163 1956,9126 1986,9086 2012,9043 2034,8997 2052,8949 2064,8899 2072,8847 2075,8793 Z M 1311,8553 L 1311,8553 1472,8553 1472,8713 1553,8713 1553,8553 1793,8793 1553,9034 1553,8874 1311,8874 1311,8553 Z"/></g><g/></g></g><g><desc>Drawing</desc><g><g style="stroke:none;fill:rgb(153,204,0)"><path d="M 1029,11891 L 1029,18971 8109,18971 8109,11891 1029,11891 Z"/></g><g/></g></g><g><desc>Drawing</desc><g><g style="stroke:none;fill:rgb(206,255,60)"><path d="M 1351,12213 L 1351,18649 7787,18649 7787,12213 1351,12213 Z"/></g><g/></g></g><g><desc>Drawing</desc><g><g style="stroke:none;fill:rgb(153,204,0)"><path d="M 8793,17924 L 8793,17924 8739,17927 8688,17935 8637,17947 8589,17965 8543,17987 8500,18013 8460,18043 8423,18077 8389,18114 8359,18155 8332,18198 8310,18243 8293,18291 8280,18342 8272,18394 8269,18447 8272,18500 8280,18552 8293,18602 8310,18650 8332,18696 8359,18739 8389,18780 8423,18817 8460,18851 8500,18881 8543,18907 8589,18930 8637,18947 8688,18960 8739,18968 8793,18971 8846,18968 8898,18960 8948,18947 8996,18930 9042,18907 9085,18881 9125,18851 9162,18817 9196,18780 9226,18739 9252,18696 9274,18650 9292,18602 9304,18552 9312,18500 9315,18447 9312,18394 9304,18342 9292,18291 9274,18243 9252,18198 9226,18155 9196,18114 9162,18077 9125,18043 9085,18013 9042,17987 8996,17965 8948,17947 8898,17935 8846,17927 8793,17924 Z M 8551,18689 L 8551,18689 8551,18528 8713,18528 8713,18447 8551,18447 8793,18206 9033,18447 8873,18447 8873,18689 8551,18689 Z"/></g><g/></g></g><g><desc>Drawing</desc><g><g style="stroke:none;fill:rgb(51,204,204)"><path d="M 11890,1031 L 11890,8110 18970,8110 18970,1031 11890,1031 Z"/></g><g/></g></g><g><desc>Drawing</desc><g><g style="stroke:none;fill:rgb(148,228,228)"><path d="M 12212,1353 L 12212,7788 18648,7788 18648,1353 12212,1353 Z"/></g><g/></g></g><g><desc>Drawing</desc><g><g style="stroke:none;fill:rgb(51,204,204)"><path d="M 11207,2076 L 11207,2076 11260,2073 11312,2065 11362,2053 11410,2035 11455,2013 11498,1987 11539,1957 11576,1923 11609,1886 11639,1846 11665,1803 11687,1757 11705,1709 11717,1659 11725,1607 11728,1554 11725,1501 11717,1449 11705,1398 11687,1350 11665,1305 11639,1262 11609,1221 11576,1184 11539,1150 11498,1120 11455,1094 11410,1072 11362,1054 11312,1042 11260,1034 11207,1031 11153,1034 11101,1042 11051,1054 11003,1072 10957,1094 10914,1120 10873,1150 10836,1184 10802,1221 10772,1262 10746,1305 10724,1350 10707,1398 10694,1449 10686,1501 10683,1554 10686,1607 10694,1659 10707,1709 10724,1757 10746,1803 10772,1846 10802,1886 10836,1923 10873,1957 10914,1987 10957,2013 11003,2035 11051,2053 11101,2065 11153,2073 11207,2076 Z M 11448,1312 L 11448,1312 11448,1473 11286,1473 11286,1554 11448,1554 11207,1795 10965,1554 11126,1554 11126,1312 11448,1312 Z"/></g><g/></g></g><g><desc>Drawing</desc><g><g style="stroke:none;fill:rgb(255,51,0)"><path d="M 11890,11891 L 11890,18971 18970,18971 18970,11891 11890,11891 Z"/></g><g/></g></g><g><desc>Drawing</desc><g><g style="stroke:none;fill:rgb(255,136,106)"><path d="M 12212,12213 L 12212,18649 18648,18649 18648,12213 12212,12213 Z"/></g><g/></g></g><g><desc>Drawing</desc><g><g style="stroke:none;fill:rgb(255,51,0)"><path d="M 17923,11207 L 17923,11207 17926,11260 17934,11312 17946,11363 17964,11411 17986,11456 18012,11499 18042,11540 18076,11577 18113,11611 18154,11641 18197,11667 18242,11689 18290,11707 18341,11719 18393,11727 18446,11730 18500,11727 18551,11719 18602,11707 18650,11689 18696,11667 18739,11641 18779,11611 18816,11577 18850,11540 18880,11499 18907,11456 18929,11411 18946,11363 18959,11312 18967,11260 18970,11207 18967,11154 18959,11102 18946,11052 18929,11004 18907,10958 18880,10915 18850,10875 18816,10838 18779,10804 18739,10774 18696,10747 18650,10725 18602,10708 18551,10695 18500,10687 18446,10684 18393,10687 18341,10695 18290,10708 18242,10725 18197,10747 18154,10774 18113,10804 18076,10838 18042,10875 18012,10915 17986,10958 17964,11004 17946,11052 17934,11102 17926,11154 17923,11207 Z M 18688,11448 L 18688,11448 18526,11448 18526,11287 18446,11287 18446,11448 18205,11207 18446,10966 18446,11126 18688,11126 18688,11448 Z"/></g><g/></g></g><g><desc>Drawing</desc><g><g style="stroke:none;fill:rgb(206,255,60)"><path d="M 9477,16718 L 9477,17763 10522,17763 10522,16718 9477,16718 Z"/></g><g/></g></g><g><desc>Drawing</desc><g><g style="stroke:none;fill:rgb(206,255,60)"><path d="M 9477,15511 L 9477,16557 10522,16557 10522,15511 9477,15511 Z"/></g><g/></g></g><g><desc>Drawing</desc><g><g style="stroke:none;fill:rgb(206,255,60)"><path d="M 9477,14304 L 9477,15349 10522,15349 10522,14304 9477,14304 Z"/></g><g/></g></g><g><desc>Drawing</desc><g><g style="stroke:none;fill:rgb(206,255,60)"><path d="M 9477,13097 L 9477,14143 10522,14143 10522,13097 9477,13097 Z"/></g><g/></g></g><g><desc>Drawing</desc><g><g style="stroke:none;fill:rgb(206,255,60)"><path d="M 9477,11891 L 9477,12937 10522,12937 10522,11891 9477,11891 Z"/></g><g/></g></g><g><desc>Drawing</desc><g><g style="stroke:none;fill:rgb(206,255,60)"><path d="M 9477,10684 L 9477,11730 10522,11730 10522,10684 9477,10684 Z"/></g><g/></g></g><g><desc>Drawing</desc><g><g style="stroke:none;fill:rgb(128,128,128)"><path d="M 10160,16966 L 10160,17514 10001,17514 10001,17156 9982,17168 9964,17180 9945,17189 9927,17201 9909,17208 9887,17215 9864,17226 9838,17234 9838,17111 9857,17102 9875,17097 9893,17090 9909,17081 9922,17076 9938,17069 9950,17058 9961,17050 9982,17031 10001,17010 10016,16989 10025,16977 10029,16966 10160,16966 Z"/></g><g/></g></g><g><desc>Drawing</desc><g><g style="stroke:none;fill:rgb(128,128,128)"><path d="M 10235,16308 L 9765,16308 9767,16292 9769,16274 9775,16259 9780,16243 9788,16227 9796,16212 9804,16198 9814,16182 9826,16167 9838,16151 9854,16135 9872,16120 9893,16101 9914,16082 9941,16064 9966,16043 9982,16032 9997,16019 10011,16009 10025,16001 10034,15990 10043,15983 10050,15974 10056,15969 10063,15956 10069,15943 10074,15932 10074,15922 10074,15909 10069,15899 10063,15888 10056,15877 10045,15870 10034,15864 10022,15861 10007,15861 9993,15861 9979,15864 9969,15873 9959,15880 9954,15885 9950,15891 9945,15896 9943,15904 9941,15913 9938,15922 9935,15932 9932,15943 9775,15930 9778,15915 9780,15901 9785,15888 9788,15875 9794,15861 9798,15852 9804,15840 9810,15833 9817,15823 9822,15814 9830,15807 9838,15802 9860,15788 9880,15778 9891,15772 9903,15769 9916,15765 9932,15762 9948,15762 9966,15760 9985,15760 10004,15760 10025,15760 10043,15760 10061,15762 10077,15762 10092,15765 10106,15767 10119,15772 10132,15778 10154,15786 10174,15799 10190,15814 10197,15823 10206,15833 10210,15840 10216,15852 10221,15861 10224,15873 10226,15882 10228,15894 10228,15904 10232,15917 10228,15927 10228,15941 10226,15951 10224,15965 10219,15974 10213,15988 10208,15998 10200,16009 10192,16022 10181,16032 10172,16045 10158,16057 10142,16069 10126,16082 10108,16096 10090,16109 10079,16118 10069,16124 10059,16130 10050,16135 10043,16141 10038,16145 10031,16151 10027,16153 10019,16158 10009,16167 10001,16177 9991,16185 10235,16185 10235,16308 Z"/></g><g/></g></g><g><desc>Drawing</desc><g><g style="stroke:none;fill:rgb(128,128,128)"><path d="M 9924,14713 L 9850,14701 9774,14688 9779,14673 9786,14657 9792,14640 9802,14628 9811,14615 9820,14604 9834,14593 9844,14583 9860,14575 9874,14567 9892,14562 9910,14557 9928,14554 9949,14548 9971,14548 9994,14548 10021,14548 10046,14551 10067,14554 10089,14557 10110,14562 10126,14569 10141,14577 10154,14588 10164,14598 10175,14609 10184,14619 10191,14633 10196,14642 10202,14659 10202,14673 10204,14685 10202,14704 10200,14720 10191,14734 10184,14751 10178,14756 10172,14765 10160,14777 10141,14788 10123,14798 10138,14803 10152,14809 10164,14812 10172,14817 10186,14826 10200,14838 10209,14847 10218,14861 10222,14875 10227,14890 10230,14909 10233,14927 10233,14937 10230,14951 10227,14961 10225,14972 10222,14982 10218,14995 10212,15006 10206,15016 10200,15027 10191,15037 10184,15045 10175,15056 10164,15064 10154,15069 10144,15077 10134,15083 10120,15090 10107,15092 10091,15098 10075,15100 10060,15104 10041,15106 10023,15106 10005,15106 9987,15106 9967,15106 9952,15104 9936,15104 9920,15100 9908,15098 9894,15092 9884,15090 9863,15080 9842,15069 9826,15053 9811,15037 9797,15022 9784,15001 9774,14979 9766,14956 9844,14946 9924,14935 9926,14946 9928,14956 9931,14964 9933,14974 9939,14979 9942,14987 9947,14993 9952,14998 9963,15006 9973,15012 9987,15014 10001,15016 10010,15014 10015,15014 10023,15012 10031,15012 10037,15006 10041,15003 10049,14998 10055,14993 10062,14982 10071,14967 10073,14951 10073,14943 10075,14935 10073,14916 10071,14901 10062,14887 10055,14878 10044,14866 10031,14861 10015,14857 9999,14857 9989,14857 9979,14857 9963,14861 9949,14864 9958,14756 9963,14759 9967,14759 9973,14759 9976,14759 9991,14756 10005,14753 10017,14749 10028,14741 10039,14730 10044,14720 10046,14709 10049,14696 10049,14682 10044,14673 10041,14664 10033,14657 10025,14649 10015,14645 10005,14640 9991,14640 9979,14642 9965,14645 9955,14649 9947,14657 9942,14661 9939,14667 9933,14673 9931,14680 9928,14685 9926,14696 9924,14704 9924,14713 Z"/></g><g/></g></g><g><desc>Drawing</desc><g><g style="stroke:none;fill:rgb(128,128,128)"><path d="M 10039,13676 L 10039,13507 10001,13551 9963,13593 9926,13635 9890,13676 10039,13676 Z M 10039,13793 L 9753,13793 9753,13669 9824,13588 9897,13509 9967,13428 10039,13346 10175,13346 10175,13676 10245,13676 10245,13793 10175,13793 10175,13895 10039,13895 10039,13793 Z"/></g><g/></g></g><g><desc>Drawing</desc><g><g style="stroke:none;fill:rgb(128,128,128)"><path d="M 9832,12138 L 10206,12138 10206,12261 9954,12261 9941,12341 9954,12336 9966,12331 9979,12326 9993,12324 10007,12320 10019,12317 10029,12317 10043,12317 10063,12317 10085,12320 10104,12324 10119,12328 10138,12336 10154,12343 10166,12355 10178,12365 10192,12378 10203,12392 10213,12407 10221,12420 10226,12437 10228,12454 10232,12470 10235,12489 10232,12501 10232,12515 10228,12529 10226,12541 10224,12555 10219,12564 10213,12579 10206,12591 10200,12602 10192,12612 10181,12623 10174,12633 10163,12642 10154,12649 10142,12656 10129,12665 10116,12670 10104,12675 10088,12680 10072,12683 10056,12685 10038,12689 10019,12689 10001,12689 9975,12689 9950,12685 9927,12683 9906,12677 9887,12673 9869,12668 9854,12659 9838,12649 9826,12638 9812,12628 9801,12614 9794,12604 9785,12591 9778,12576 9769,12560 9765,12541 9844,12531 9922,12522 9927,12541 9932,12555 9941,12567 9948,12579 9961,12588 9972,12593 9985,12597 10001,12600 10009,12597 10016,12597 10022,12593 10029,12591 10038,12588 10043,12583 10047,12581 10053,12573 10059,12567 10063,12560 10066,12552 10069,12543 10072,12536 10074,12525 10074,12515 10074,12505 10074,12491 10074,12480 10072,12470 10069,12463 10066,12451 10063,12447 10059,12439 10053,12433 10047,12428 10043,12423 10034,12418 10029,12416 10022,12412 10013,12412 10007,12409 9995,12409 9985,12409 9975,12412 9964,12416 9954,12420 9945,12426 9935,12430 9927,12439 9916,12449 9783,12430 9810,12284 9832,12138 Z"/></g><g/></g></g><g><desc>Drawing</desc><g><g style="stroke:none;fill:rgb(128,128,128)"><path d="M 9932,11299 L 9932,11310 9932,11320 9935,11331 9938,11339 9941,11346 9945,11355 9950,11362 9957,11367 9961,11372 9966,11379 9975,11383 9979,11386 9988,11388 9995,11391 10004,11393 10011,11393 10019,11393 10027,11391 10031,11391 10040,11388 10045,11383 10053,11381 10059,11375 10063,11370 10072,11358 10077,11351 10079,11343 10082,11333 10082,11325 10085,11315 10085,11304 10085,11291 10082,11280 10082,11273 10079,11263 10077,11254 10072,11247 10066,11241 10063,11233 10059,11228 10050,11223 10045,11220 10038,11214 10031,11212 10025,11212 10016,11209 10009,11209 10001,11209 9993,11212 9985,11212 9979,11214 9972,11218 9966,11223 9959,11228 9954,11233 9948,11238 9945,11247 9941,11254 9938,11263 9935,11270 9932,11278 9932,11289 9932,11299 Z M 10221,11058 L 10063,11076 10061,11063 10056,11049 10050,11042 10045,11033 10038,11026 10029,11023 10019,11021 10009,11021 9997,11021 9991,11023 9982,11026 9975,11028 9966,11033 9961,11042 9957,11047 9948,11058 9945,11065 9943,11073 9938,11086 9935,11099 9932,11113 9930,11131 9930,11149 9927,11170 9941,11157 9957,11146 9969,11136 9985,11131 10001,11122 10016,11120 10034,11118 10053,11118 10072,11118 10090,11120 10106,11122 10124,11131 10138,11136 10154,11146 10169,11157 10181,11167 10192,11181 10203,11197 10213,11212 10219,11228 10226,11244 10228,11263 10232,11280 10232,11299 10232,11312 10232,11325 10228,11339 10226,11351 10221,11362 10219,11375 10213,11386 10206,11396 10200,11407 10192,11417 10184,11428 10174,11435 10166,11443 10156,11452 10135,11464 10122,11471 10108,11475 10095,11477 10079,11480 10066,11483 10050,11485 10031,11485 10016,11485 9995,11485 9975,11485 9957,11483 9941,11480 9922,11475 9909,11473 9893,11464 9880,11459 9866,11452 9857,11443 9844,11433 9832,11423 9826,11412 9814,11400 9807,11386 9798,11370 9791,11355 9785,11339 9780,11320 9775,11299 9772,11280 9769,11257 9767,11233 9767,11209 9769,11176 9772,11141 9778,11113 9783,11084 9794,11058 9804,11033 9817,11013 9832,10994 9848,10978 9866,10965 9887,10955 9909,10944 9932,10936 9957,10931 9982,10929 10011,10929 10027,10929 10043,10929 10056,10929 10072,10931 10085,10934 10095,10936 10106,10938 10116,10941 10135,10950 10154,10960 10169,10973 10181,10986 10194,11002 10206,11018 10213,11039 10221,11058 Z"/></g><g/></g></g><g><desc>Drawing</desc><g><g style="stroke:none;fill:rgb(255,230,130)"><path d="M 2241,9481 L 2241,10528 3287,10528 3287,9481 2241,9481 Z"/></g><g/></g></g><g><desc>Drawing</desc><g><g style="stroke:none;fill:rgb(255,230,130)"><path d="M 3449,9481 L 3449,10528 4494,10528 4494,9481 3449,9481 Z"/></g><g/></g></g><g><desc>Drawing</desc><g><g style="stroke:none;fill:rgb(255,230,130)"><path d="M 4655,9481 L 4655,10528 5700,10528 5700,9481 4655,9481 Z"/></g><g/></g></g><g><desc>Drawing</desc><g><g style="stroke:none;fill:rgb(255,230,130)"><path d="M 5862,9481 L 5862,10528 6908,10528 6908,9481 5862,9481 Z"/></g><g/></g></g><g><desc>Drawing</desc><g><g style="stroke:none;fill:rgb(255,230,130)"><path d="M 7068,9481 L 7068,10528 8114,10528 8114,9481 7068,9481 Z"/></g><g/></g></g><g><desc>Drawing</desc><g><g style="stroke:none;fill:rgb(255,230,130)"><path d="M 8275,9481 L 8275,10528 9321,10528 9321,9481 8275,9481 Z"/></g><g/></g></g><g><desc>Drawing</desc><g><g style="stroke:none;fill:rgb(128,128,128)"><path d="M 3039,10166 L 2491,10166 2491,10007 2850,10007 2837,9989 2825,9970 2816,9951 2805,9932 2797,9915 2789,9894 2779,9870 2771,9844 2895,9844 2902,9861 2908,9880 2916,9899 2924,9915 2929,9928 2936,9943 2947,9956 2954,9968 2974,9989 2994,10007 3015,10022 3029,10031 3039,10035 3039,10166 Z"/></g><g/></g></g><g><desc>Drawing</desc><g><g style="stroke:none;fill:rgb(128,128,128)"><path d="M 3697,10240 L 3697,9770 3713,9772 3731,9776 3746,9781 3762,9786 3778,9793 3794,9802 3807,9809 3823,9821 3838,9830 3854,9844 3870,9859 3886,9878 3904,9899 3922,9920 3941,9946 3963,9972 3973,9989 3985,10003 3997,10017 4004,10031 4015,10041 4022,10048 4031,10057 4035,10062 4049,10069 4062,10074 4072,10081 4083,10081 4096,10081 4107,10074 4117,10069 4128,10062 4135,10051 4141,10041 4144,10027 4144,10012 4144,9998 4141,9986 4132,9974 4126,9965 4120,9959 4114,9956 4110,9951 4101,9949 4094,9946 4083,9943 4072,9941 4062,9939 4075,9781 4091,9784 4104,9786 4117,9791 4130,9793 4144,9799 4154,9805 4164,9809 4172,9815 4182,9823 4191,9828 4198,9836 4204,9844 4216,9864 4227,9885 4232,9897 4236,9909 4241,9922 4243,9939 4243,9953 4245,9972 4245,9991 4245,10010 4245,10031 4245,10048 4243,10066 4243,10083 4241,10098 4238,10112 4232,10125 4227,10137 4220,10158 4207,10179 4191,10196 4182,10204 4172,10211 4164,10217 4154,10222 4144,10227 4132,10229 4123,10232 4112,10234 4101,10234 4088,10237 4078,10234 4065,10234 4053,10232 4040,10229 4031,10225 4017,10219 4007,10213 3997,10206 3983,10198 3973,10187 3959,10177 3949,10164 3936,10148 3922,10133 3909,10114 3896,10095 3888,10085 3880,10074 3875,10064 3870,10057 3866,10048 3860,10043 3854,10038 3852,10033 3846,10024 3838,10014 3828,10007 3820,9995 3820,10240 3697,10240 Z"/></g><g/></g></g><g><desc>Drawing</desc><g><g style="stroke:none;fill:rgb(128,128,128)"><path d="M 5291,9928 L 5305,9855 5317,9780 5332,9784 5348,9792 5364,9798 5378,9809 5391,9815 5402,9827 5412,9839 5422,9851 5430,9865 5438,9879 5443,9897 5449,9916 5452,9934 5457,9955 5457,9976 5457,9999 5457,10026 5454,10052 5452,10073 5449,10094 5443,10115 5436,10131 5427,10147 5418,10160 5407,10171 5396,10181 5386,10188 5372,10197 5362,10202 5346,10207 5332,10207 5319,10210 5301,10207 5285,10204 5269,10197 5253,10188 5249,10183 5241,10179 5228,10165 5217,10147 5207,10129 5201,10144 5197,10158 5194,10171 5188,10179 5179,10191 5167,10204 5157,10214 5144,10223 5131,10228 5115,10233 5097,10236 5078,10238 5068,10238 5054,10236 5044,10233 5034,10231 5023,10228 5010,10223 5000,10218 4989,10212 4978,10204 4968,10197 4960,10188 4949,10181 4941,10171 4937,10160 4928,10150 4923,10139 4915,10126 4913,10112 4907,10096 4905,10081 4901,10066 4899,10047 4899,10028 4899,10011 4899,9992 4899,9974 4901,9957 4901,9943 4905,9926 4907,9914 4913,9901 4915,9890 4925,9869 4937,9848 4953,9832 4968,9815 4984,9803 5005,9790 5026,9780 5050,9771 5060,9851 5070,9928 5060,9931 5050,9934 5041,9937 5030,9940 5026,9945 5018,9947 5012,9953 5007,9957 5000,9968 4994,9978 4991,9992 4989,10008 4991,10016 4991,10020 4994,10028 4994,10037 5000,10041 5002,10047 5007,10056 5012,10060 5023,10068 5038,10075 5054,10079 5062,10079 5070,10081 5088,10079 5104,10075 5118,10068 5129,10060 5138,10049 5144,10037 5149,10020 5149,10005 5149,9995 5149,9985 5144,9968 5141,9955 5249,9964 5246,9968 5246,9974 5246,9978 5246,9981 5249,9997 5251,10011 5257,10023 5265,10035 5275,10044 5285,10049 5296,10052 5310,10056 5323,10056 5332,10049 5341,10047 5348,10039 5357,10032 5360,10020 5364,10011 5364,9997 5362,9985 5360,9971 5357,9961 5348,9953 5344,9947 5338,9945 5332,9940 5326,9937 5319,9934 5310,9931 5301,9928 5291,9928 Z"/></g><g/></g></g><g><desc>Drawing</desc><g><g style="stroke:none;fill:rgb(128,128,128)"><path d="M 6329,10044 L 6498,10044 6455,10008 6413,9968 6370,9931 6329,9895 6329,10044 Z M 6212,10044 L 6212,9759 6336,9759 6417,9830 6496,9903 6578,9974 6659,10044 6659,10181 6329,10181 6329,10252 6212,10252 6212,10181 6110,10181 6110,10044 6212,10044 Z"/></g><g/></g></g><g><desc>Drawing</desc><g><g style="stroke:none;fill:rgb(128,128,128)"><path d="M 7866,9838 L 7866,10211 7744,10211 7744,9959 7663,9946 7669,9959 7674,9972 7679,9986 7682,9998 7685,10012 7688,10024 7688,10035 7688,10048 7688,10069 7685,10090 7682,10109 7677,10125 7669,10142 7661,10158 7650,10172 7640,10185 7627,10198 7613,10208 7597,10219 7585,10227 7569,10232 7551,10234 7535,10237 7516,10240 7503,10237 7490,10237 7478,10234 7464,10232 7451,10229 7440,10225 7426,10219 7414,10211 7404,10206 7392,10198 7383,10187 7372,10179 7365,10169 7356,10158 7349,10148 7340,10135 7335,10121 7329,10109 7325,10093 7322,10078 7319,10062 7317,10043 7317,10024 7317,10007 7317,9980 7319,9956 7322,9932 7327,9911 7333,9894 7338,9876 7345,9859 7356,9844 7367,9830 7377,9817 7390,9807 7401,9799 7414,9791 7430,9784 7446,9776 7464,9770 7474,9849 7482,9928 7464,9932 7451,9939 7438,9946 7426,9953 7417,9968 7412,9977 7408,9991 7406,10007 7408,10014 7408,10022 7412,10027 7414,10035 7417,10043 7422,10048 7424,10054 7432,10059 7438,10064 7446,10069 7454,10072 7462,10074 7469,10078 7480,10081 7490,10081 7500,10081 7514,10081 7525,10081 7535,10078 7543,10074 7553,10072 7559,10069 7566,10064 7571,10059 7577,10054 7582,10048 7587,10041 7591,10035 7593,10027 7593,10020 7595,10012 7595,10001 7595,9991 7593,9980 7591,9970 7585,9959 7579,9951 7575,9941 7566,9932 7557,9922 7575,9788 7722,9815 7866,9838 Z"/></g><g/></g></g><g><desc>Drawing</desc><g><g style="stroke:none;fill:rgb(128,128,128)"><path d="M 8706,9939 L 8696,9939 8684,9939 8675,9941 8666,9943 8660,9946 8651,9951 8644,9956 8638,9962 8632,9968 8628,9972 8622,9980 8619,9986 8617,9993 8614,10001 8612,10010 8612,10017 8612,10024 8614,10033 8614,10038 8617,10045 8622,10051 8624,10059 8630,10064 8635,10069 8648,10078 8654,10083 8662,10085 8672,10087 8680,10087 8691,10090 8700,10090 8714,10090 8725,10087 8732,10087 8743,10085 8750,10083 8759,10078 8764,10072 8773,10069 8777,10064 8782,10057 8785,10051 8791,10043 8793,10038 8793,10031 8795,10022 8795,10014 8795,10007 8793,9998 8793,9991 8791,9986 8788,9977 8782,9972 8777,9965 8773,9959 8766,9953 8759,9951 8750,9946 8743,9943 8735,9941 8727,9939 8716,9939 8706,9939 Z M 8948,10227 L 8929,10069 8942,10066 8956,10062 8964,10057 8972,10051 8980,10043 8982,10035 8984,10024 8984,10014 8984,10003 8982,9995 8980,9989 8976,9980 8972,9972 8964,9968 8958,9962 8948,9953 8940,9951 8932,9949 8919,9943 8906,9941 8892,9939 8874,9935 8856,9935 8835,9932 8847,9946 8859,9962 8869,9974 8874,9991 8882,10007 8885,10022 8888,10041 8888,10059 8888,10078 8885,10095 8882,10112 8874,10130 8869,10142 8859,10158 8847,10175 8838,10187 8825,10198 8809,10208 8793,10219 8777,10225 8761,10232 8743,10234 8725,10237 8706,10237 8693,10237 8680,10237 8666,10234 8654,10232 8644,10227 8630,10225 8619,10219 8608,10211 8598,10206 8588,10198 8577,10190 8569,10179 8562,10172 8553,10161 8540,10140 8535,10127 8531,10114 8527,10102 8525,10085 8522,10072 8519,10057 8519,10038 8519,10022 8519,10001 8519,9980 8522,9962 8525,9946 8531,9928 8533,9915 8540,9899 8546,9885 8553,9873 8562,9861 8572,9849 8583,9838 8592,9830 8606,9821 8619,9812 8635,9805 8651,9797 8666,9791 8684,9786 8706,9781 8725,9778 8748,9776 8773,9772 8795,9772 8829,9776 8863,9778 8892,9784 8922,9788 8948,9799 8972,9809 8992,9823 9010,9838 9026,9855 9039,9873 9050,9894 9061,9915 9069,9939 9073,9962 9077,9989 9077,10017 9077,10033 9077,10048 9077,10062 9073,10078 9071,10090 9069,10102 9066,10112 9064,10121 9055,10140 9045,10158 9032,10175 9019,10187 9003,10201 8987,10211 8966,10219 8948,10227 Z"/></g><g/></g></g><g><desc>Drawing</desc><g><g style="stroke:none;fill:rgb(148,228,228)"><path d="M 9472,2236 L 9472,3282 10518,3282 10518,2236 9472,2236 Z"/></g><g/></g></g><g><desc>Drawing</desc><g><g style="stroke:none;fill:rgb(148,228,228)"><path d="M 9472,3444 L 9472,4489 10518,4489 10518,3444 9472,3444 Z"/></g><g/></g></g><g><desc>Drawing</desc><g><g style="stroke:none;fill:rgb(148,228,228)"><path d="M 9472,4650 L 9472,5695 10518,5695 10518,4650 9472,4650 Z"/></g><g/></g></g><g><desc>Drawing</desc><g><g style="stroke:none;fill:rgb(148,228,228)"><path d="M 9472,5857 L 9472,6903 10518,6903 10518,5857 9472,5857 Z"/></g><g/></g></g><g><desc>Drawing</desc><g><g style="stroke:none;fill:rgb(148,228,228)"><path d="M 9472,7063 L 9472,8109 10518,8109 10518,7063 9472,7063 Z"/></g><g/></g></g><g><desc>Drawing</desc><g><g style="stroke:none;fill:rgb(148,228,228)"><path d="M 9472,8270 L 9472,9316 10518,9316 10518,8270 9472,8270 Z"/></g><g/></g></g><g><desc>Drawing</desc><g><g style="stroke:none;fill:rgb(128,128,128)"><path d="M 9834,3034 L 9834,2484 9993,2484 9993,2844 10011,2832 10031,2821 10049,2811 10067,2800 10085,2792 10106,2785 10130,2774 10156,2766 10156,2890 10138,2896 10119,2903 10101,2911 10085,2918 10072,2924 10056,2932 10043,2942 10033,2950 10011,2969 9993,2990 9977,3010 9970,3024 9965,3034 9834,3034 Z"/></g><g/></g></g><g><desc>Drawing</desc><g><g style="stroke:none;fill:rgb(128,128,128)"><path d="M 9760,3692 L 10230,3692 10227,3707 10224,3726 10219,3741 10214,3757 10206,3772 10198,3789 10190,3803 10180,3818 10169,3833 10156,3849 10140,3864 10122,3881 10101,3899 10080,3918 10053,3937 10027,3956 10011,3968 9995,3980 9983,3991 9970,3998 9959,4010 9952,4017 9943,4025 9938,4031 9930,4043 9925,4057 9920,4067 9920,4078 9920,4090 9925,4102 9930,4112 9938,4123 9949,4130 9959,4135 9972,4138 9988,4138 10001,4138 10015,4135 10025,4128 10035,4121 10040,4114 10043,4109 10049,4104 10051,4096 10053,4088 10056,4078 10059,4067 10062,4057 10219,4069 10216,4086 10214,4099 10209,4112 10206,4125 10200,4138 10196,4149 10190,4159 10184,4167 10178,4177 10172,4186 10164,4194 10156,4198 10135,4213 10114,4222 10104,4227 10090,4230 10077,4236 10062,4238 10046,4238 10027,4240 10009,4240 9991,4240 9970,4240 9952,4240 9933,4238 9918,4238 9902,4236 9888,4234 9875,4227 9862,4222 9841,4215 9820,4201 9805,4186 9796,4177 9789,4167 9783,4159 9778,4149 9773,4138 9771,4128 9768,4118 9765,4107 9765,4096 9762,4083 9765,4073 9765,4060 9768,4050 9771,4036 9775,4025 9780,4012 9786,4001 9794,3991 9802,3977 9812,3968 9823,3954 9836,3944 9852,3931 9868,3918 9886,3904 9904,3891 9915,3883 9925,3876 9936,3870 9943,3864 9952,3860 9957,3855 9961,3849 9967,3847 9975,3841 9985,3833 9993,3824 10004,3815 9760,3815 9760,3692 Z"/></g><g/></g></g><g><desc>Drawing</desc><g><g style="stroke:none;fill:rgb(128,128,128)"><path d="M 10071,5285 L 10144,5299 10220,5312 10215,5327 10206,5344 10202,5360 10191,5373 10184,5386 10172,5396 10160,5407 10150,5417 10134,5425 10120,5434 10102,5438 10084,5443 10066,5446 10044,5452 10023,5452 10001,5452 9973,5452 9948,5448 9926,5446 9906,5443 9884,5438 9869,5431 9854,5422 9840,5413 9829,5401 9819,5391 9811,5380 9804,5367 9797,5356 9792,5342 9792,5327 9790,5315 9792,5296 9795,5281 9804,5264 9811,5250 9816,5243 9822,5236 9835,5223 9854,5212 9872,5202 9856,5196 9842,5191 9829,5189 9822,5183 9808,5172 9795,5162 9785,5151 9777,5139 9772,5125 9766,5110 9763,5091 9761,5073 9761,5062 9763,5049 9766,5038 9769,5028 9772,5017 9777,5005 9782,4993 9788,4984 9795,4974 9804,4963 9811,4955 9819,4944 9829,4936 9840,4932 9851,4923 9860,4918 9874,4911 9887,4908 9903,4902 9919,4899 9935,4897 9953,4894 9971,4894 9989,4894 10007,4894 10025,4894 10041,4897 10057,4897 10073,4899 10086,4902 10100,4908 10110,4911 10132,4920 10152,4932 10168,4947 10184,4963 10197,4978 10210,4999 10220,5021 10228,5045 10150,5055 10071,5066 10068,5055 10066,5045 10063,5036 10060,5026 10055,5021 10053,5012 10047,5007 10041,5003 10031,4993 10021,4989 10007,4986 9991,4984 9985,4986 9979,4986 9971,4989 9963,4989 9958,4993 9953,4997 9944,5003 9939,5007 9932,5017 9924,5033 9921,5049 9921,5057 9919,5066 9921,5083 9924,5099 9932,5113 9939,5123 9950,5134 9963,5139 9979,5144 9994,5144 10005,5144 10016,5144 10031,5139 10044,5137 10037,5243 10031,5241 10025,5241 10021,5241 10019,5241 10003,5243 9989,5247 9976,5252 9966,5260 9955,5271 9950,5281 9948,5292 9944,5304 9944,5318 9950,5327 9953,5335 9960,5344 9969,5352 9979,5354 9989,5360 10003,5360 10016,5356 10029,5354 10039,5352 10047,5344 10053,5339 10055,5333 10060,5327 10063,5321 10066,5315 10068,5304 10071,5296 10071,5285 Z"/></g><g/></g></g><g><desc>Drawing</desc><g><g style="stroke:none;fill:rgb(128,128,128)"><path d="M 9955,6322 L 9955,6494 9991,6450 10031,6408 10068,6365 10105,6322 9955,6322 Z M 9955,6207 L 10242,6207 10242,6331 10170,6412 10097,6492 10025,6573 9955,6654 9819,6654 9819,6322 9747,6322 9747,6207 9819,6207 9819,6105 9955,6105 9955,6207 Z"/></g><g/></g></g><g><desc>Drawing</desc><g><g style="stroke:none;fill:rgb(128,128,128)"><path d="M 10162,7861 L 9789,7861 9789,7740 10040,7740 10053,7658 10040,7664 10027,7669 10015,7674 10001,7677 9988,7679 9975,7681 9965,7681 9952,7681 9930,7681 9909,7679 9891,7677 9875,7672 9857,7664 9841,7656 9828,7646 9814,7635 9802,7622 9791,7608 9780,7592 9773,7580 9768,7564 9765,7545 9762,7530 9760,7512 9762,7497 9762,7485 9765,7472 9768,7459 9771,7445 9775,7436 9780,7422 9789,7409 9794,7399 9802,7387 9812,7378 9820,7367 9830,7359 9841,7351 9852,7344 9864,7335 9878,7330 9891,7325 9906,7319 9922,7317 9938,7314 9957,7311 9975,7311 9993,7311 10019,7311 10043,7314 10067,7317 10088,7323 10106,7328 10124,7332 10140,7340 10156,7351 10169,7361 10182,7372 10193,7384 10200,7396 10209,7409 10216,7424 10224,7441 10230,7459 10151,7470 10072,7476 10067,7459 10062,7445 10053,7432 10046,7422 10033,7412 10022,7406 10009,7403 9993,7401 9985,7403 9977,7403 9972,7406 9965,7409 9957,7412 9952,7417 9945,7420 9941,7427 9936,7432 9930,7441 9927,7448 9925,7455 9922,7464 9920,7474 9920,7485 9920,7495 9920,7509 9920,7519 9922,7530 9925,7537 9927,7549 9930,7554 9936,7561 9941,7566 9945,7572 9952,7577 9959,7582 9965,7585 9972,7587 9981,7587 9988,7589 9999,7589 10009,7589 10019,7587 10031,7585 10040,7580 10049,7575 10059,7568 10067,7561 10077,7551 10212,7568 10184,7716 10162,7861 Z"/></g><g/></g></g><g><desc>Drawing</desc><g><g style="stroke:none;fill:rgb(128,128,128)"><path d="M 10062,8701 L 10062,8690 10062,8680 10059,8669 10056,8662 10053,8655 10049,8645 10043,8638 10038,8633 10033,8627 10027,8622 10019,8617 10015,8615 10007,8612 9999,8609 9991,8606 9983,8606 9975,8606 9967,8609 9961,8609 9954,8612 9949,8617 9941,8620 9936,8624 9930,8630 9922,8643 9918,8648 9915,8657 9912,8667 9912,8674 9909,8685 9909,8695 9909,8709 9912,8719 9912,8728 9915,8737 9918,8746 9922,8753 9927,8759 9930,8768 9936,8772 9943,8777 9949,8780 9957,8785 9961,8787 9970,8787 9977,8791 9985,8791 9993,8791 10001,8787 10009,8787 10015,8785 10022,8782 10027,8777 10035,8772 10040,8768 10046,8761 10049,8753 10053,8746 10056,8737 10059,8730 10062,8722 10062,8711 10062,8701 Z M 9773,8942 L 9930,8924 9933,8937 9938,8952 9943,8958 9949,8966 9957,8975 9965,8977 9975,8979 9985,8979 9995,8979 10004,8977 10011,8975 10019,8973 10027,8966 10033,8958 10038,8954 10046,8942 10049,8935 10051,8927 10056,8914 10059,8900 10062,8887 10065,8869 10065,8851 10067,8829 10053,8843 10038,8853 10025,8864 10009,8869 9993,8877 9977,8879 9959,8883 9941,8883 9922,8883 9904,8879 9888,8877 9870,8869 9857,8864 9841,8853 9826,8843 9812,8832 9802,8820 9791,8803 9780,8787 9775,8772 9768,8756 9765,8737 9762,8719 9762,8701 9762,8688 9762,8674 9765,8662 9768,8648 9773,8638 9775,8624 9780,8615 9789,8603 9794,8593 9802,8582 9810,8572 9820,8565 9828,8556 9838,8549 9860,8535 9872,8530 9886,8525 9900,8523 9915,8520 9927,8517 9943,8514 9961,8514 9977,8514 9999,8514 10019,8514 10038,8517 10053,8520 10072,8525 10085,8528 10101,8535 10114,8541 10128,8549 10138,8556 10151,8567 10162,8577 10169,8588 10180,8601 10187,8615 10196,8630 10203,8645 10209,8662 10214,8680 10219,8701 10221,8719 10224,8743 10227,8768 10227,8791 10224,8824 10221,8860 10216,8887 10212,8916 10200,8942 10190,8966 10178,8987 10162,9006 10146,9022 10128,9034 10106,9046 10085,9056 10062,9064 10038,9069 10011,9071 9983,9071 9967,9071 9952,9071 9938,9071 9922,9069 9909,9067 9900,9064 9888,9061 9878,9058 9860,9050 9841,9040 9826,9027 9812,9013 9798,8998 9789,8982 9780,8961 9773,8942 Z"/></g><g/></g></g><g><desc>Drawing</desc><g><g style="stroke:none;fill:rgb(255,136,106)"><path d="M 16711,9481 L 16711,10528 17758,10528 17758,9481 16711,9481 Z"/></g><g/></g></g><g><desc>Drawing</desc><g><g style="stroke:none;fill:rgb(255,136,106)"><path d="M 15505,9481 L 15505,10528 16550,10528 16550,9481 15505,9481 Z"/></g><g/></g></g><g><desc>Drawing</desc><g><g style="stroke:none;fill:rgb(255,136,106)"><path d="M 14297,9481 L 14297,10528 15343,10528 15343,9481 14297,9481 Z"/></g><g/></g></g><g><desc>Drawing</desc><g><g style="stroke:none;fill:rgb(255,136,106)"><path d="M 13091,9481 L 13091,10528 14137,10528 14137,9481 13091,9481 Z"/></g><g/></g></g><g><desc>Drawing</desc><g><g style="stroke:none;fill:rgb(255,136,106)"><path d="M 11884,9481 L 11884,10528 12930,10528 12930,9481 11884,9481 Z"/></g><g/></g></g><g><desc>Drawing</desc><g><g style="stroke:none;fill:rgb(255,136,106)"><path d="M 10678,9481 L 10678,10528 11724,10528 11724,9481 10678,9481 Z"/></g><g/></g></g><g><desc>Drawing</desc><g><g style="stroke:none;fill:rgb(128,128,128)"><path d="M 16959,9844 L 17509,9844 17509,10003 17149,10003 17163,10022 17172,10041 17183,10059 17193,10078 17201,10095 17209,10116 17219,10140 17228,10166 17104,10166 17096,10148 17090,10130 17084,10112 17075,10095 17070,10083 17062,10066 17052,10054 17044,10043 17025,10022 17005,10003 16983,9989 16971,9980 16959,9974 16959,9844 Z"/></g><g/></g></g><g><desc>Drawing</desc><g><g style="stroke:none;fill:rgb(128,128,128)"><path d="M 16303,9770 L 16303,10240 16287,10237 16267,10234 16252,10229 16236,10225 16221,10217 16206,10208 16192,10201 16176,10190 16160,10179 16144,10166 16129,10151 16113,10133 16095,10112 16077,10090 16057,10064 16037,10038 16025,10022 16013,10007 16003,9993 15994,9980 15985,9970 15976,9962 15969,9953 15963,9949 15950,9941 15937,9935 15926,9930 15916,9930 15903,9930 15892,9935 15881,9941 15872,9949 15863,9959 15858,9970 15856,9983 15856,9998 15856,10012 15858,10024 15866,10035 15874,10045 15878,10051 15884,10054 15890,10059 15897,10062 15906,10064 15916,10066 15926,10069 15937,10072 15924,10229 15908,10227 15894,10225 15881,10219 15869,10217 15856,10211 15844,10206 15834,10201 15826,10196 15816,10187 15808,10182 15800,10175 15795,10166 15781,10145 15772,10125 15766,10114 15763,10102 15759,10087 15756,10072 15756,10057 15753,10038 15753,10020 15753,10001 15753,9980 15753,9962 15756,9943 15756,9928 15759,9911 15761,9899 15766,9885 15772,9873 15779,9852 15792,9830 15808,9815 15816,9807 15826,9799 15834,9793 15844,9788 15856,9784 15866,9781 15876,9778 15887,9776 15897,9776 15910,9772 15921,9776 15935,9776 15944,9778 15958,9781 15969,9786 15982,9791 15991,9797 16003,9805 16016,9812 16025,9823 16039,9833 16050,9847 16063,9861 16077,9878 16089,9897 16102,9915 16111,9925 16118,9935 16123,9946 16129,9953 16134,9962 16138,9968 16144,9972 16147,9977 16152,9986 16160,9995 16170,10003 16178,10014 16178,9770 16303,9770 Z"/></g><g/></g></g><g><desc>Drawing</desc><g><g style="stroke:none;fill:rgb(128,128,128)"><path d="M 14708,10081 L 14694,10155 14681,10231 14666,10225 14650,10218 14634,10212 14622,10202 14608,10194 14597,10183 14586,10171 14577,10160 14568,10144 14561,10131 14555,10112 14550,10094 14547,10075 14543,10056 14543,10035 14543,10011 14543,9985 14545,9957 14547,9937 14550,9916 14555,9895 14563,9879 14571,9863 14581,9851 14592,9839 14602,9830 14613,9822 14626,9813 14638,9809 14652,9803 14666,9803 14678,9801 14697,9803 14713,9806 14728,9813 14744,9822 14750,9827 14758,9832 14771,9845 14782,9863 14791,9882 14797,9865 14803,9853 14805,9839 14810,9832 14821,9818 14831,9806 14841,9794 14855,9787 14868,9782 14884,9777 14902,9775 14920,9771 14932,9771 14944,9775 14954,9777 14966,9780 14976,9782 14988,9787 15000,9792 15010,9798 15020,9806 15031,9813 15039,9822 15049,9830 15058,9839 15063,9851 15071,9861 15076,9872 15083,9884 15085,9897 15091,9914 15094,9928 15097,9945 15099,9964 15099,9981 15099,9999 15099,10018 15099,10037 15097,10052 15097,10068 15094,10084 15091,10096 15085,10110 15083,10120 15073,10141 15063,10162 15047,10179 15031,10194 15015,10207 14994,10221 14972,10231 14950,10238 14938,10160 14929,10081 14938,10079 14950,10075 14957,10073 14968,10070 14972,10066 14981,10063 14986,10058 14992,10052 15000,10041 15004,10032 15008,10018 15010,10002 15008,9995 15008,9989 15004,9981 15004,9974 15000,9968 14997,9964 14992,9955 14986,9949 14976,9943 14960,9934 14944,9931 14936,9931 14929,9928 14911,9931 14895,9934 14881,9943 14871,9949 14859,9961 14855,9974 14850,9989 14850,10005 14850,10016 14850,10026 14855,10041 14857,10056 14750,10047 14753,10041 14753,10037 14753,10032 14753,10028 14750,10014 14747,9999 14742,9987 14735,9976 14724,9966 14713,9961 14703,9957 14690,9955 14676,9955 14666,9961 14658,9964 14650,9971 14642,9978 14640,9989 14634,9999 14634,10014 14638,10026 14640,10039 14642,10049 14650,10058 14656,10063 14660,10066 14666,10070 14674,10073 14678,10075 14690,10079 14697,10081 14708,10081 Z"/></g><g/></g></g><g><desc>Drawing</desc><g><g style="stroke:none;fill:rgb(128,128,128)"><path d="M 13671,9966 L 13500,9966 13544,10002 13587,10041 13628,10079 13671,10115 13671,9966 Z M 13786,9966 L 13786,10252 13662,10252 13581,10181 13502,10108 13420,10037 13339,9966 13339,9830 13671,9830 13671,9759 13786,9759 13786,9830 13889,9830 13889,9966 13786,9966 Z"/></g><g/></g></g><g><desc>Drawing</desc><g><g style="stroke:none;fill:rgb(128,128,128)"><path d="M 12133,10172 L 12133,9799 12254,9799 12254,10051 12335,10064 12330,10051 12325,10038 12319,10024 12316,10012 12314,9998 12312,9986 12312,9974 12312,9962 12312,9941 12314,9920 12316,9901 12322,9885 12330,9868 12338,9852 12348,9838 12359,9826 12372,9812 12385,9802 12401,9791 12413,9784 12429,9778 12447,9776 12463,9772 12483,9770 12495,9772 12508,9772 12522,9776 12535,9778 12548,9781 12558,9786 12572,9791 12584,9799 12596,9805 12606,9812 12616,9823 12627,9830 12635,9840 12643,9852 12650,9861 12659,9876 12664,9888 12669,9901 12675,9918 12677,9932 12679,9949 12682,9968 12682,9986 12682,10003 12682,10031 12679,10054 12677,10078 12671,10098 12666,10116 12661,10135 12653,10151 12643,10166 12632,10179 12621,10193 12608,10204 12598,10211 12584,10219 12569,10227 12554,10234 12535,10240 12524,10161 12517,10083 12535,10078 12548,10072 12560,10064 12572,10057 12582,10043 12587,10033 12590,10020 12592,10003 12590,9995 12590,9989 12587,9983 12584,9974 12582,9968 12576,9962 12574,9956 12566,9951 12560,9946 12554,9941 12544,9939 12538,9935 12530,9932 12519,9930 12508,9930 12498,9930 12485,9930 12474,9930 12463,9932 12456,9935 12445,9939 12440,9941 12431,9946 12427,9951 12422,9956 12416,9962 12411,9970 12409,9974 12407,9983 12407,9991 12404,9998 12404,10010 12404,10020 12407,10031 12409,10041 12413,10051 12419,10059 12425,10069 12431,10078 12443,10087 12425,10222 12278,10196 12133,10172 Z"/></g><g/></g></g><g><desc>Drawing</desc><g><g style="stroke:none;fill:rgb(128,128,128)"><path d="M 11292,10072 L 11304,10072 11313,10072 11324,10069 11332,10066 11340,10064 11348,10059 11356,10054 11360,10048 11366,10043 11372,10038 11376,10031 11380,10024 11382,10017 11384,10010 11387,10001 11387,9993 11387,9986 11384,9977 11384,9972 11382,9965 11376,9959 11374,9951 11369,9946 11364,9941 11351,9932 11344,9928 11338,9925 11326,9922 11319,9922 11308,9920 11297,9920 11285,9920 11274,9922 11266,9922 11256,9925 11247,9928 11240,9932 11235,9939 11227,9941 11222,9946 11216,9953 11213,9959 11209,9968 11207,9972 11207,9980 11204,9989 11204,9995 11204,10003 11207,10012 11207,10020 11209,10024 11211,10033 11216,10038 11222,10045 11227,10051 11231,10057 11240,10059 11247,10064 11256,10066 11263,10069 11272,10072 11282,10072 11292,10072 Z M 11051,9784 L 11069,9941 11056,9943 11044,9949 11035,9953 11028,9959 11019,9968 11017,9974 11014,9986 11014,9995 11014,10007 11017,10014 11019,10022 11022,10031 11028,10038 11035,10043 11040,10048 11051,10057 11060,10059 11066,10062 11080,10066 11093,10069 11106,10072 11125,10074 11143,10074 11164,10078 11150,10064 11141,10048 11130,10035 11125,10020 11116,10003 11114,9989 11112,9970 11112,9951 11112,9932 11114,9915 11116,9899 11125,9880 11130,9868 11141,9852 11150,9836 11161,9823 11175,9812 11191,9802 11207,9791 11222,9786 11237,9778 11256,9776 11274,9772 11292,9772 11306,9772 11319,9772 11332,9776 11344,9778 11356,9784 11369,9786 11380,9791 11390,9799 11400,9805 11410,9812 11421,9821 11430,9830 11437,9838 11445,9849 11458,9870 11464,9882 11469,9897 11471,9909 11473,9925 11477,9939 11479,9953 11479,9972 11479,9989 11479,10010 11479,10031 11477,10048 11473,10064 11469,10083 11466,10095 11458,10112 11453,10125 11445,10137 11437,10148 11426,10161 11416,10172 11406,10179 11392,10190 11380,10198 11364,10206 11348,10213 11332,10219 11313,10225 11292,10229 11274,10232 11250,10234 11227,10237 11204,10237 11169,10234 11135,10232 11106,10227 11078,10222 11051,10211 11028,10201 11006,10187 10988,10172 10972,10156 10959,10137 10949,10116 10937,10095 10931,10072 10925,10048 10922,10022 10922,9993 10922,9977 10922,9962 10922,9949 10925,9932 10927,9920 10931,9909 10933,9899 10935,9888 10943,9870 10953,9852 10967,9836 10980,9823 10996,9809 11012,9799 11032,9791 11051,9784 Z"/></g><g/></g></g></g></svg>